<?xml version="1.0" encoding="utf-8"?>
<!-- Generator: Adobe Illustrator 18.1.0, SVG Export Plug-In . SVG Version: 6.00 Build 0)  -->
<!DOCTYPE svg PUBLIC "-//W3C//DTD SVG 1.1//EN" "http://www.w3.org/Graphics/SVG/1.1/DTD/svg11.dtd">
<svg version="1.1" id="Layer_1" xmlns="http://www.w3.org/2000/svg" xmlns:xlink="http://www.w3.org/1999/xlink" x="0px" y="0px"
	 viewBox="0 0 142 142" enable-background="new 0 0 142 142" xml:space="preserve">
<g id="Layer_6" display="none">
	<g display="inline">
		<path fill="#FBB617" d="M136.5,20.8V8.1H4.2v25.6v58.4c0,3.2,1.7,6.1,4.4,7.7l57.3,33.1c2.8,1.6,6.1,1.6,8.9,0l57.3-33.1
			c2.8-1.6,4.4-4.5,4.4-7.7V20.8L136.5,20.8z"/>
		<g>
			<g>
				<polyline fill="none" stroke="#FFFFFF" stroke-width="0.75" stroke-miterlimit="10" points="132.9,24.2 132.9,23.6 132.8,23.6 
					132.8,23 				"/>
				
					<line fill="none" stroke="#FFFFFF" stroke-width="0.75" stroke-miterlimit="10" stroke-dasharray="1.9015,1.9015" x1="132.8" y1="21.8" x2="132.8" y2="12.7"/>
				<polyline fill="none" stroke="#FFFFFF" stroke-width="0.75" stroke-miterlimit="10" points="132.8,12.1 132.8,11.5 132.2,11.5 
									"/>
				
					<line fill="none" stroke="#FFFFFF" stroke-width="0.75" stroke-miterlimit="10" stroke-dasharray="1.9818,1.9818" x1="131" y1="11.5" x2="9" y2="11.5"/>
				<polyline fill="none" stroke="#FFFFFF" stroke-width="0.75" stroke-miterlimit="10" points="8.4,11.5 7.8,11.5 7.8,12.1 				"/>
				<path fill="none" stroke="#FFFFFF" stroke-width="0.75" stroke-miterlimit="10" stroke-dasharray="2.0022,2.0022" d="M7.8,13.4
					v22.3v55.2c0,3,1.6,5.7,4.2,7.3l54.1,31.2c2.6,1.5,5.8,1.5,8.4,0l54.1-31.2c2.6-1.5,4.2-4.3,4.2-7.3V24.8"/>
			</g>
		</g>
		<path fill="none" stroke="#FFFFFF" stroke-width="0.75" stroke-miterlimit="10" stroke-dasharray="2" d="M7.8,32.4
			c0,0,1.8-5.7,9.7,0s9.7,5.5,12.2,3.3"/>
		<path fill="none" stroke="#FFFFFF" stroke-width="0.75" stroke-miterlimit="10" stroke-dasharray="2" d="M115.6,38.3
			c0,0,1.4-4.2,7.6,0c6.2,4.2,7.6,4.1,9.6,2.5"/>
		<g>
			<path fill="none" stroke="#FFFFFF" stroke-miterlimit="10" d="M25.4,25.4h4.1c0.1,0.3,0.1,0.5,0.1,0.8s0.1,0.5,0.1,0.8
				c0.4-0.6,1.1-1,1.8-1.3s1.5-0.4,2.2-0.4c1,0,1.9,0.2,2.7,0.6c0.8,0.4,1.5,0.9,2,1.6c0.5,0.7,0.9,1.5,1.1,2.3
				c0.3,0.8,0.4,1.8,0.4,2.7c0,1.3-0.2,2.4-0.6,3.3c-0.4,0.9-1,1.8-1.7,2.3c-0.7,0.6-1.5,1.1-2.3,1.4s-1.8,0.4-2.6,0.4
				c-0.7,0-1.3-0.1-1.6-0.2c-0.4-0.1-0.8-0.3-1.2-0.4v6.1h-4.3C25.4,45.2,25.4,25.4,25.4,25.4z M29.7,35.7c0.6,0.4,1.4,0.6,2.5,0.6
				c1.1,0,1.9-0.4,2.5-1.1c0.6-0.7,0.9-1.6,0.9-2.8c0-0.4-0.1-0.9-0.2-1.3c-0.1-0.4-0.3-0.8-0.5-1.1S34.3,29.3,34,29
				c-0.4-0.2-0.8-0.3-1.3-0.3c-0.5,0-0.9,0.1-1.3,0.3c-0.4,0.2-0.7,0.4-0.9,0.7c-0.3,0.3-0.4,0.6-0.6,1s-0.2,0.8-0.2,1.1L29.7,35.7
				L29.7,35.7z"/>
			<path fill="none" stroke="#FFFFFF" stroke-miterlimit="10" d="M41.8,32.3c0-1,0.2-2,0.6-2.9c0.4-0.9,0.9-1.7,1.5-2.4
				s1.5-1.2,2.4-1.6s2-0.6,3-0.6c1.1,0,2.1,0.2,3,0.6c0.9,0.4,1.7,0.9,2.3,1.6c0.6,0.7,1.1,1.5,1.5,2.4c0.4,0.9,0.6,1.9,0.6,2.9
				s-0.2,2-0.6,2.9s-0.9,1.7-1.5,2.4s-1.5,1.2-2.3,1.6c-0.9,0.4-2,0.6-3,0.6c-1.1,0-2.1-0.2-3-0.6c-0.9-0.4-1.7-0.9-2.4-1.6
				c-0.6-0.7-1.2-1.5-1.5-2.4C42,34.3,41.8,33.4,41.8,32.3z M49.3,36.1c0.6,0,1-0.1,1.5-0.3c0.4-0.2,0.8-0.5,1.1-0.8
				c0.3-0.4,0.5-0.8,0.6-1.2c0.1-0.4,0.2-0.9,0.2-1.4c0-0.5-0.1-0.9-0.2-1.4c-0.1-0.4-0.4-0.8-0.6-1.2c-0.3-0.3-0.6-0.6-1.1-0.8
				c-0.4-0.2-0.9-0.3-1.5-0.3s-1,0.1-1.5,0.3c-0.4,0.2-0.8,0.5-1.1,0.8c-0.3,0.4-0.5,0.8-0.6,1.2c-0.1,0.4-0.3,0.9-0.3,1.4
				c0,0.5,0.1,0.9,0.3,1.4c0.1,0.4,0.4,0.8,0.6,1.2s0.6,0.6,1.1,0.8C48.3,36,48.8,36.1,49.3,36.1z"/>
			<path fill="none" stroke="#FFFFFF" stroke-miterlimit="10" d="M71.9,37.5c-0.6,0.6-1.3,1.2-2.3,1.6c-0.9,0.4-2.1,0.7-3.3,0.7
				c-1.1,0-2.1-0.2-3.1-0.6c-0.9-0.4-1.7-0.9-2.4-1.6c-0.6-0.7-1.2-1.5-1.5-2.4c-0.4-0.9-0.6-1.9-0.6-3c0-1,0.2-2,0.6-2.9
				c0.4-0.9,0.9-1.7,1.6-2.4s1.5-1.2,2.4-1.6c0.9-0.4,2-0.6,3-0.6c1.3,0,2.4,0.2,3.3,0.6c0.9,0.4,1.7,0.9,2.3,1.6l-2.6,2.8
				c-0.3-0.4-0.7-0.7-1.1-0.9c-0.4-0.3-1.1-0.4-1.8-0.4c-0.5,0-1,0.1-1.4,0.3c-0.4,0.2-0.8,0.5-1.1,0.8c-0.3,0.3-0.5,0.8-0.6,1.2
				S63,31.7,63,32.2c0,0.4,0.1,0.9,0.3,1.3c0.1,0.4,0.4,0.8,0.6,1.2c0.3,0.4,0.6,0.6,1.1,0.8c0.4,0.2,0.9,0.3,1.4,0.3
				c0.8,0,1.3-0.1,1.8-0.4c0.5-0.3,0.9-0.6,1.2-0.9L71.9,37.5z"/>
			<path fill="none" stroke="#FFFFFF" stroke-miterlimit="10" d="M73.9,19.4h4.3v10.3l4.3-4.4h4.9l-5,5.2l5.7,8.8h-5l-3.6-5.9
				l-1.3,1.3v4.6h-4.3C73.9,39.3,73.9,19.4,73.9,19.4z"/>
			<path fill="none" stroke="#FFFFFF" stroke-miterlimit="10" d="M102.1,37.8c-0.2,0.1-0.4,0.3-0.7,0.5c-0.3,0.3-0.8,0.4-1.3,0.7
				c-0.5,0.2-1.1,0.4-1.8,0.6c-0.7,0.2-1.5,0.3-2.4,0.3c-1.2,0-2.3-0.2-3.2-0.6c-0.9-0.4-1.8-0.9-2.4-1.5c-0.7-0.6-1.2-1.5-1.5-2.4
				c-0.4-0.9-0.5-2-0.5-3c0-0.9,0.2-1.9,0.5-2.8c0.3-0.9,0.8-1.7,1.4-2.4c0.6-0.7,1.4-1.2,2.3-1.6c0.9-0.4,1.9-0.6,3-0.6
				s2.1,0.2,3,0.6c0.9,0.4,1.6,0.9,2.1,1.6c0.6,0.7,1,1.6,1.3,2.5c0.3,1,0.4,2.1,0.4,3.2v0.7h-10c0,0.8,0.4,1.4,1,2
				c0.6,0.6,1.5,0.8,2.7,0.8s2-0.2,2.7-0.5c0.7-0.3,1.2-0.6,1.5-0.8L102.1,37.8z M98.3,30.9c0-0.3-0.1-0.6-0.2-0.9
				c-0.1-0.3-0.3-0.6-0.5-0.8c-0.3-0.3-0.6-0.4-0.9-0.6c-0.4-0.2-0.8-0.3-1.3-0.3s-0.9,0.1-1.3,0.3c-0.4,0.2-0.7,0.4-0.9,0.6
				s-0.4,0.6-0.6,0.8c-0.1,0.3-0.2,0.6-0.2,0.9H98.3z"/>
			<path fill="none" stroke="#FFFFFF" stroke-miterlimit="10" d="M105.9,28.7h-2.2v-3.3h2.2v-4.2h4.3v4.2h3.6v3.3h-3.6v5.5
				c0,0.7,0.1,1.2,0.4,1.6c0.3,0.4,0.7,0.6,1.3,0.6c0.4,0,0.8-0.1,1.1-0.3c0.3-0.1,0.6-0.3,0.9-0.5l1.7,2.7
				c-1.3,1.1-2.8,1.6-4.4,1.6c-1,0-1.8-0.1-2.5-0.4c-0.7-0.3-1.2-0.7-1.6-1.2c-0.4-0.5-0.7-1.1-0.9-1.8c-0.2-0.7-0.3-1.5-0.3-2.4
				L105.9,28.7L105.9,28.7z"/>
		</g>
		<path fill="#FFFFFF" d="M54.1,58.6L54.1,58.6c-1.1,0-2-0.9-2-2v-6.8c0-1.1,0.9-2,2-2l0,0c1.1,0,2,0.9,2,2v6.8
			C56,57.8,55.2,58.6,54.1,58.6z"/>
		<path fill="#FFFFFF" d="M80,58.6L80,58.6c-1.1,0-2-0.9-2-2v-6.8c0-1.1,0.9-2,2-2l0,0c1.1,0,2,0.9,2,2v6.8
			C81.9,57.8,81,58.6,80,58.6z"/>
		<rect x="56.6" y="67.3" fill="#FFFFFF" width="8.3" height="8.3"/>
		<rect x="68.7" y="67.3" fill="#FFFFFF" width="8.3" height="8.3"/>
		<rect x="81.1" y="67.3" fill="#FFFFFF" width="8.3" height="8.3"/>
		<rect x="43.9" y="78.9" fill="#FFFFFF" width="8.3" height="8.3"/>
		<rect x="56.6" y="78.9" fill="#FFFFFF" width="8.3" height="8.3"/>
		<rect x="56.6" y="90.8" fill="#FFFFFF" width="8.3" height="8.3"/>
		<rect x="43.9" y="90.8" fill="#FFFFFF" width="8.3" height="8.3"/>
		<rect x="43.9" y="67.3" fill="none" stroke="#FFFFFF" stroke-miterlimit="10" width="8.3" height="8.3"/>
		<circle fill="none" stroke="#FFFFFF" stroke-width="5" stroke-miterlimit="10" cx="87" cy="96.6" r="15.6"/>
		<path fill="#FFFFFF" d="M86.6,99.4l-11.5-8.5v6.5l10.9,8.9c0.4,0.3,0.9,0.3,1.2-0.1l11.1-14.5l-3.9-3.4L86.6,99.4z"/>
		<path fill="#FFFFFF" d="M93.9,53.8H83.6v3.4c0,1.8-1.5,3.2-3.2,3.2h-0.9c-1.8,0-3.2-1.5-3.2-3.2v-3.4H57.5v3.4
			c0,1.8-1.5,3.2-3.2,3.2h-0.9c-1.8,0-3.2-1.5-3.2-3.2v-3.4H39.6c-1.3,0-2.3,1-2.3,2.3v46.7c0,1.3,1,2.3,2.3,2.3h27.3v-3.3H41.3
			V63.8h51.2v12.8h3.7V56.1C96.2,54.8,95.2,53.8,93.9,53.8z"/>
	</g>
</g>
<g id="Layer_6_copy">
	<path fill="#A4CE52" d="M136.5,20.8V8.1H4.2v25.6v58.4c0,3.2,1.7,6.1,4.4,7.7l57.3,33.1c2.8,1.6,6.1,1.6,8.9,0l57.3-33.1
		c2.8-1.6,4.4-4.5,4.4-7.7V20.8L136.5,20.8z"/>
	<g>
		<g>
			<polyline fill="none" stroke="#FFFFFF" stroke-width="0.75" stroke-miterlimit="10" points="132.9,24.2 132.9,23.6 132.8,23.6 
				132.8,23 			"/>
			
				<line fill="none" stroke="#FFFFFF" stroke-width="0.75" stroke-miterlimit="10" stroke-dasharray="1.9015,1.9015" x1="132.8" y1="21.8" x2="132.8" y2="12.7"/>
			<polyline fill="none" stroke="#FFFFFF" stroke-width="0.75" stroke-miterlimit="10" points="132.8,12.1 132.8,11.5 132.2,11.5 
							"/>
			
				<line fill="none" stroke="#FFFFFF" stroke-width="0.75" stroke-miterlimit="10" stroke-dasharray="1.9818,1.9818" x1="131" y1="11.5" x2="9" y2="11.5"/>
			<polyline fill="none" stroke="#FFFFFF" stroke-width="0.75" stroke-miterlimit="10" points="8.4,11.5 7.8,11.5 7.8,12.1 			"/>
			<path fill="none" stroke="#FFFFFF" stroke-width="0.75" stroke-miterlimit="10" stroke-dasharray="2.0022,2.0022" d="M7.8,13.4
				v22.3v55.2c0,3,1.6,5.7,4.2,7.3l54.1,31.2c2.6,1.5,5.8,1.5,8.4,0l54.1-31.2c2.6-1.5,4.2-4.3,4.2-7.3V24.8"/>
		</g>
	</g>
	<path fill="none" stroke="#FFFFFF" stroke-width="0.75" stroke-miterlimit="10" stroke-dasharray="2" d="M7.8,32.4
		c0,0,1.8-5.7,9.7,0s9.7,5.5,12.2,3.3"/>
	<path fill="none" stroke="#FFFFFF" stroke-width="0.75" stroke-miterlimit="10" stroke-dasharray="2" d="M115.6,38.3
		c0,0,1.4-4.2,7.6,0c6.2,4.2,7.6,4.1,9.6,2.5"/>
	<g>
		<path fill="none" stroke="#FFFFFF" stroke-miterlimit="10" d="M25.4,25.4h4.1c0.1,0.3,0.1,0.5,0.1,0.8s0.1,0.5,0.1,0.8
			c0.4-0.6,1.1-1,1.8-1.3s1.5-0.4,2.2-0.4c1,0,1.9,0.2,2.7,0.6c0.8,0.4,1.5,0.9,2,1.6c0.5,0.7,0.9,1.5,1.1,2.3
			c0.3,0.8,0.4,1.8,0.4,2.7c0,1.3-0.2,2.4-0.6,3.3c-0.4,0.9-1,1.8-1.7,2.3c-0.7,0.6-1.5,1.1-2.3,1.4s-1.8,0.4-2.6,0.4
			c-0.7,0-1.3-0.1-1.6-0.2c-0.4-0.1-0.8-0.3-1.2-0.4v6.1h-4.3C25.4,45.2,25.4,25.4,25.4,25.4z M29.7,35.7c0.6,0.4,1.4,0.6,2.5,0.6
			c1.1,0,1.9-0.4,2.5-1.1c0.6-0.7,0.9-1.6,0.9-2.8c0-0.4-0.1-0.9-0.2-1.3c-0.1-0.4-0.3-0.8-0.5-1.1S34.3,29.3,34,29
			c-0.4-0.2-0.8-0.3-1.3-0.3c-0.5,0-0.9,0.1-1.3,0.3c-0.4,0.2-0.7,0.4-0.9,0.7c-0.3,0.3-0.4,0.6-0.6,1s-0.2,0.8-0.2,1.1L29.7,35.7
			L29.7,35.7z"/>
		<path fill="none" stroke="#FFFFFF" stroke-miterlimit="10" d="M41.8,32.3c0-1,0.2-2,0.6-2.9c0.4-0.9,0.9-1.7,1.5-2.4
			s1.5-1.2,2.4-1.6s2-0.6,3-0.6c1.1,0,2.1,0.2,3,0.6c0.9,0.4,1.7,0.9,2.3,1.6c0.6,0.7,1.1,1.5,1.5,2.4c0.4,0.9,0.6,1.9,0.6,2.9
			s-0.2,2-0.6,2.9s-0.9,1.7-1.5,2.4s-1.5,1.2-2.3,1.6c-0.9,0.4-2,0.6-3,0.6c-1.1,0-2.1-0.2-3-0.6c-0.9-0.4-1.7-0.9-2.4-1.6
			c-0.6-0.7-1.2-1.5-1.5-2.4C42,34.3,41.8,33.4,41.8,32.3z M49.3,36.1c0.6,0,1-0.1,1.5-0.3c0.4-0.2,0.8-0.5,1.1-0.8
			c0.3-0.4,0.5-0.8,0.6-1.2c0.1-0.4,0.2-0.9,0.2-1.4c0-0.5-0.1-0.9-0.2-1.4c-0.1-0.4-0.4-0.8-0.6-1.2c-0.3-0.3-0.6-0.6-1.1-0.8
			c-0.4-0.2-0.9-0.3-1.5-0.3s-1,0.1-1.5,0.3c-0.4,0.2-0.8,0.5-1.1,0.8c-0.3,0.4-0.5,0.8-0.6,1.2c-0.1,0.4-0.3,0.9-0.3,1.4
			c0,0.5,0.1,0.9,0.3,1.4c0.1,0.4,0.4,0.8,0.6,1.2s0.6,0.6,1.1,0.8C48.3,36,48.8,36.1,49.3,36.1z"/>
		<path fill="none" stroke="#FFFFFF" stroke-miterlimit="10" d="M71.9,37.5c-0.6,0.6-1.3,1.2-2.3,1.6c-0.9,0.4-2.1,0.7-3.3,0.7
			c-1.1,0-2.1-0.2-3.1-0.6c-0.9-0.4-1.7-0.9-2.4-1.6c-0.6-0.7-1.2-1.5-1.5-2.4c-0.4-0.9-0.6-1.9-0.6-3c0-1,0.2-2,0.6-2.9
			c0.4-0.9,0.9-1.7,1.6-2.4s1.5-1.2,2.4-1.6c0.9-0.4,2-0.6,3-0.6c1.3,0,2.4,0.2,3.3,0.6c0.9,0.4,1.7,0.9,2.3,1.6l-2.6,2.8
			c-0.3-0.4-0.7-0.7-1.1-0.9c-0.4-0.3-1.1-0.4-1.8-0.4c-0.5,0-1,0.1-1.4,0.3c-0.4,0.2-0.8,0.5-1.1,0.8c-0.3,0.3-0.5,0.8-0.6,1.2
			S63,31.7,63,32.2c0,0.4,0.1,0.9,0.3,1.3c0.1,0.4,0.4,0.8,0.6,1.2c0.3,0.4,0.6,0.6,1.1,0.8c0.4,0.2,0.9,0.3,1.4,0.3
			c0.8,0,1.3-0.1,1.8-0.4c0.5-0.3,0.9-0.6,1.2-0.9L71.9,37.5z"/>
		<path fill="none" stroke="#FFFFFF" stroke-miterlimit="10" d="M73.9,19.4h4.3v10.3l4.3-4.4h4.9l-5,5.2l5.7,8.8h-5l-3.6-5.9
			l-1.3,1.3v4.6h-4.3C73.9,39.3,73.9,19.4,73.9,19.4z"/>
		<path fill="none" stroke="#FFFFFF" stroke-miterlimit="10" d="M102.1,37.8c-0.2,0.1-0.4,0.3-0.7,0.5c-0.3,0.3-0.8,0.4-1.3,0.7
			c-0.5,0.2-1.1,0.4-1.8,0.6c-0.7,0.2-1.5,0.3-2.4,0.3c-1.2,0-2.3-0.2-3.2-0.6c-0.9-0.4-1.8-0.9-2.4-1.5c-0.7-0.6-1.2-1.5-1.5-2.4
			c-0.4-0.9-0.5-2-0.5-3c0-0.9,0.2-1.9,0.5-2.8c0.3-0.9,0.8-1.7,1.4-2.4c0.6-0.7,1.4-1.2,2.3-1.6c0.9-0.4,1.9-0.6,3-0.6
			s2.1,0.2,3,0.6c0.9,0.4,1.6,0.9,2.1,1.6c0.6,0.7,1,1.6,1.3,2.5c0.3,1,0.4,2.1,0.4,3.2v0.7h-10c0,0.8,0.4,1.4,1,2
			c0.6,0.6,1.5,0.8,2.7,0.8s2-0.2,2.7-0.5c0.7-0.3,1.2-0.6,1.5-0.8L102.1,37.8z M98.3,30.9c0-0.3-0.1-0.6-0.2-0.9
			c-0.1-0.3-0.3-0.6-0.5-0.8c-0.3-0.3-0.6-0.4-0.9-0.6c-0.4-0.2-0.8-0.3-1.3-0.3s-0.9,0.1-1.3,0.3c-0.4,0.2-0.7,0.4-0.9,0.6
			s-0.4,0.6-0.6,0.8c-0.1,0.3-0.2,0.6-0.2,0.9H98.3z"/>
		<path fill="none" stroke="#FFFFFF" stroke-miterlimit="10" d="M105.9,28.7h-2.2v-3.3h2.2v-4.2h4.3v4.2h3.6v3.3h-3.6v5.5
			c0,0.7,0.1,1.2,0.4,1.6c0.3,0.4,0.7,0.6,1.3,0.6c0.4,0,0.8-0.1,1.1-0.3c0.3-0.1,0.6-0.3,0.9-0.5l1.7,2.7c-1.3,1.1-2.8,1.6-4.4,1.6
			c-1,0-1.8-0.1-2.5-0.4c-0.7-0.3-1.2-0.7-1.6-1.2c-0.4-0.5-0.7-1.1-0.9-1.8c-0.2-0.7-0.3-1.5-0.3-2.4L105.9,28.7L105.9,28.7z"/>
	</g>
	<g>
		<path fill="#1B2846" d="M97.4,89.4c5.7-4,9.2-9.9,9.2-16.4c0-12.2-12.4-22-27.6-22s-27.6,9.8-27.6,22S63.8,95,79,95
			c3.2,0,6.2-0.4,9.2-1.3c2.9,5.7,7.6,10.7,13.6,14.3c-2.8-4.7-4.5-10.1-4.5-15.8C97.2,91.3,97.3,90.3,97.4,89.4z M91.4,69.2
			c2.1,0,3.7,1.7,3.7,3.7c0,2.1-1.7,3.7-3.7,3.7s-3.7-1.7-3.7-3.7C87.7,70.9,89.4,69.2,91.4,69.2z M64.2,76.7
			c-2.1,0-3.7-1.7-3.7-3.7c0-2.1,1.7-3.7,3.7-3.7c2.1,0,3.7,1.7,3.7,3.7C67.9,75,66.2,76.7,64.2,76.7z M77.6,76.7
			c-2.1,0-3.7-1.7-3.7-3.7c0-2.1,1.7-3.7,3.7-3.7c2.1,0,3.7,1.7,3.7,3.7C81.4,75,79.7,76.7,77.6,76.7z"/>
		<path fill="#1B2846" d="M48.2,75.1c0-3,0.8-6,2.2-8.6C43.8,68,38.7,71.9,37,77.7c-1.5,5.2,0.2,10.9,4,15.7
			c-0.1,0.8-0.3,1.6-0.5,2.4c-1.3,4.6-3.9,8.5-7.4,11.5c5.9-1.3,11-4.1,14.8-8c2.2,1.4,4.7,2.5,7.4,3.4c10.7,3.3,21.3,0.6,26.2-6.1
			c-1.9,0.3-3.8,0.5-5.9,0.5C60.5,97.1,48.2,87.3,48.2,75.1z"/>
	</g>
</g>
<g id="Layer_6_copy_2" display="none">
	<path display="inline" fill="#1B2947" d="M136.5,20.8V8.1H4.2v25.6v58.4c0,3.2,1.7,6.1,4.4,7.7l57.3,33.1c2.8,1.6,6.1,1.6,8.9,0
		l57.3-33.1c2.8-1.6,4.4-4.5,4.4-7.7V20.8L136.5,20.8z"/>
	<g display="inline">
		<g>
			<polyline fill="none" stroke="#FFFFFF" stroke-width="0.75" stroke-miterlimit="10" points="132.9,24.2 132.9,23.6 132.8,23.6 
				132.8,23 			"/>
			
				<line fill="none" stroke="#FFFFFF" stroke-width="0.75" stroke-miterlimit="10" stroke-dasharray="1.9015,1.9015" x1="132.8" y1="21.8" x2="132.8" y2="12.7"/>
			<polyline fill="none" stroke="#FFFFFF" stroke-width="0.75" stroke-miterlimit="10" points="132.8,12.1 132.8,11.5 132.2,11.5 
							"/>
			
				<line fill="none" stroke="#FFFFFF" stroke-width="0.75" stroke-miterlimit="10" stroke-dasharray="1.9818,1.9818" x1="131" y1="11.5" x2="9" y2="11.5"/>
			<polyline fill="none" stroke="#FFFFFF" stroke-width="0.75" stroke-miterlimit="10" points="8.4,11.5 7.8,11.5 7.8,12.1 			"/>
			<path fill="none" stroke="#FFFFFF" stroke-width="0.75" stroke-miterlimit="10" stroke-dasharray="2.0022,2.0022" d="M7.8,13.4
				v22.3v55.2c0,3,1.6,5.7,4.2,7.3l54.1,31.2c2.6,1.5,5.8,1.5,8.4,0l54.1-31.2c2.6-1.5,4.2-4.3,4.2-7.3V24.8"/>
		</g>
	</g>
	<path display="inline" fill="none" stroke="#FFFFFF" stroke-width="0.75" stroke-miterlimit="10" stroke-dasharray="2" d="
		M7.8,32.4c0,0,1.8-5.7,9.7,0s9.7,5.5,12.2,3.3"/>
	<path display="inline" fill="none" stroke="#FFFFFF" stroke-width="0.75" stroke-miterlimit="10" stroke-dasharray="2" d="
		M115.6,38.3c0,0,1.4-4.2,7.6,0c6.2,4.2,7.6,4.1,9.6,2.5"/>
	<g display="inline">
		<path fill="none" stroke="#FFFFFF" stroke-miterlimit="10" d="M25.4,25.4h4.1c0.1,0.3,0.1,0.5,0.1,0.8s0.1,0.5,0.1,0.8
			c0.4-0.6,1.1-1,1.8-1.3s1.5-0.4,2.2-0.4c1,0,1.9,0.2,2.7,0.6c0.8,0.4,1.5,0.9,2,1.6c0.5,0.7,0.9,1.5,1.1,2.3
			c0.3,0.8,0.4,1.8,0.4,2.7c0,1.3-0.2,2.4-0.6,3.3c-0.4,0.9-1,1.8-1.7,2.3c-0.7,0.6-1.5,1.1-2.3,1.4s-1.8,0.4-2.6,0.4
			c-0.7,0-1.3-0.1-1.6-0.2c-0.4-0.1-0.8-0.3-1.2-0.4v6.1h-4.3C25.4,45.2,25.4,25.4,25.4,25.4z M29.7,35.7c0.6,0.4,1.4,0.6,2.5,0.6
			c1.1,0,1.9-0.4,2.5-1.1c0.6-0.7,0.9-1.6,0.9-2.8c0-0.4-0.1-0.9-0.2-1.3c-0.1-0.4-0.3-0.8-0.5-1.1S34.3,29.3,34,29
			c-0.4-0.2-0.8-0.3-1.3-0.3c-0.5,0-0.9,0.1-1.3,0.3c-0.4,0.2-0.7,0.4-0.9,0.7c-0.3,0.3-0.4,0.6-0.6,1s-0.2,0.8-0.2,1.1L29.7,35.7
			L29.7,35.7z"/>
		<path fill="none" stroke="#FFFFFF" stroke-miterlimit="10" d="M41.8,32.3c0-1,0.2-2,0.6-2.9c0.4-0.9,0.9-1.7,1.5-2.4
			s1.5-1.2,2.4-1.6s2-0.6,3-0.6c1.1,0,2.1,0.2,3,0.6c0.9,0.4,1.7,0.9,2.3,1.6c0.6,0.7,1.1,1.5,1.5,2.4c0.4,0.9,0.6,1.9,0.6,2.9
			s-0.2,2-0.6,2.9s-0.9,1.7-1.5,2.4s-1.5,1.2-2.3,1.6c-0.9,0.4-2,0.6-3,0.6c-1.1,0-2.1-0.2-3-0.6c-0.9-0.4-1.7-0.9-2.4-1.6
			c-0.6-0.7-1.2-1.5-1.5-2.4C42,34.3,41.8,33.4,41.8,32.3z M49.3,36.1c0.6,0,1-0.1,1.5-0.3c0.4-0.2,0.8-0.5,1.1-0.8
			c0.3-0.4,0.5-0.8,0.6-1.2c0.1-0.4,0.2-0.9,0.2-1.4c0-0.5-0.1-0.9-0.2-1.4c-0.1-0.4-0.4-0.8-0.6-1.2c-0.3-0.3-0.6-0.6-1.1-0.8
			c-0.4-0.2-0.9-0.3-1.5-0.3s-1,0.1-1.5,0.3c-0.4,0.2-0.8,0.5-1.1,0.8c-0.3,0.4-0.5,0.8-0.6,1.2c-0.1,0.4-0.3,0.9-0.3,1.4
			c0,0.5,0.1,0.9,0.3,1.4c0.1,0.4,0.4,0.8,0.6,1.2s0.6,0.6,1.1,0.8C48.3,36,48.8,36.1,49.3,36.1z"/>
		<path fill="none" stroke="#FFFFFF" stroke-miterlimit="10" d="M71.9,37.5c-0.6,0.6-1.3,1.2-2.3,1.6c-0.9,0.4-2.1,0.7-3.3,0.7
			c-1.1,0-2.1-0.2-3.1-0.6c-0.9-0.4-1.7-0.9-2.4-1.6c-0.6-0.7-1.2-1.5-1.5-2.4c-0.4-0.9-0.6-1.9-0.6-3c0-1,0.2-2,0.6-2.9
			c0.4-0.9,0.9-1.7,1.6-2.4s1.5-1.2,2.4-1.6c0.9-0.4,2-0.6,3-0.6c1.3,0,2.4,0.2,3.3,0.6c0.9,0.4,1.7,0.9,2.3,1.6l-2.6,2.8
			c-0.3-0.4-0.7-0.7-1.1-0.9c-0.4-0.3-1.1-0.4-1.8-0.4c-0.5,0-1,0.1-1.4,0.3c-0.4,0.2-0.8,0.5-1.1,0.8c-0.3,0.3-0.5,0.8-0.6,1.2
			S63,31.7,63,32.2c0,0.4,0.1,0.9,0.3,1.3c0.1,0.4,0.4,0.8,0.6,1.2c0.3,0.4,0.6,0.6,1.1,0.8c0.4,0.2,0.9,0.3,1.4,0.3
			c0.8,0,1.3-0.1,1.8-0.4c0.5-0.3,0.9-0.6,1.2-0.9L71.9,37.5z"/>
		<path fill="none" stroke="#FFFFFF" stroke-miterlimit="10" d="M73.9,19.4h4.3v10.3l4.3-4.4h4.9l-5,5.2l5.7,8.8h-5l-3.6-5.9
			l-1.3,1.3v4.6h-4.3C73.9,39.3,73.9,19.4,73.9,19.4z"/>
		<path fill="none" stroke="#FFFFFF" stroke-miterlimit="10" d="M102.1,37.8c-0.2,0.1-0.4,0.3-0.7,0.5c-0.3,0.3-0.8,0.4-1.3,0.7
			c-0.5,0.2-1.1,0.4-1.8,0.6c-0.7,0.2-1.5,0.3-2.4,0.3c-1.2,0-2.3-0.2-3.2-0.6c-0.9-0.4-1.8-0.9-2.4-1.5c-0.7-0.6-1.2-1.5-1.5-2.4
			c-0.4-0.9-0.5-2-0.5-3c0-0.9,0.2-1.9,0.5-2.8c0.3-0.9,0.8-1.7,1.4-2.4c0.6-0.7,1.4-1.2,2.3-1.6c0.9-0.4,1.9-0.6,3-0.6
			s2.1,0.2,3,0.6c0.9,0.4,1.6,0.9,2.1,1.6c0.6,0.7,1,1.6,1.3,2.5c0.3,1,0.4,2.1,0.4,3.2v0.7h-10c0,0.8,0.4,1.4,1,2
			c0.6,0.6,1.5,0.8,2.7,0.8s2-0.2,2.7-0.5c0.7-0.3,1.2-0.6,1.5-0.8L102.1,37.8z M98.3,30.9c0-0.3-0.1-0.6-0.2-0.9
			c-0.1-0.3-0.3-0.6-0.5-0.8c-0.3-0.3-0.6-0.4-0.9-0.6c-0.4-0.2-0.8-0.3-1.3-0.3s-0.9,0.1-1.3,0.3c-0.4,0.2-0.7,0.4-0.9,0.6
			s-0.4,0.6-0.6,0.8c-0.1,0.3-0.2,0.6-0.2,0.9H98.3z"/>
		<path fill="none" stroke="#FFFFFF" stroke-miterlimit="10" d="M105.9,28.7h-2.2v-3.3h2.2v-4.2h4.3v4.2h3.6v3.3h-3.6v5.5
			c0,0.7,0.1,1.2,0.4,1.6c0.3,0.4,0.7,0.6,1.3,0.6c0.4,0,0.8-0.1,1.1-0.3c0.3-0.1,0.6-0.3,0.9-0.5l1.7,2.7c-1.3,1.1-2.8,1.6-4.4,1.6
			c-1,0-1.8-0.1-2.5-0.4c-0.7-0.3-1.2-0.7-1.6-1.2c-0.4-0.5-0.7-1.1-0.9-1.8c-0.2-0.7-0.3-1.5-0.3-2.4L105.9,28.7L105.9,28.7z"/>
	</g>
	<g display="inline">
		<path fill="#FFFFFF" d="M110,76.4L61.4,50.3c-2.8-1.5-6.4-0.4-8,2.4L39.2,79.2c-1.5,2.8-0.4,6.4,2.4,8l48.6,26.1
			c2.8,1.5,6.4,0.4,8-2.4l14.3-26.6C113.9,81.5,112.8,77.9,110,76.4z M94.6,110c-0.3,0.5-0.9,0.8-1.5,0.4L42.3,83.2
			c-0.5-0.3-0.8-0.9-0.4-1.5l8.8-16.3l52.4,28.9L94.6,110z M109.7,81.2l-1.6,3L55.8,55.4l1.3-2.5c0.3-0.5,0.9-0.8,1.5-0.4l50.7,27.2
			C109.8,80,110,80.7,109.7,81.2z"/>
		<circle fill="#FFFFFF" cx="93.5" cy="100.9" r="2.9"/>
	</g>
	
		<rect x="33.2" y="65.4" transform="matrix(-0.9596 -0.2813 0.2813 -0.9596 100.9661 183.886)" display="inline" fill="#4D4C49" width="61" height="38.6"/>
	<g display="inline">
		<path fill="#FFFFFF" d="M95.9,72.7l-53-15.3c-3.1-0.9-6.4,0.9-7.3,4l-8.4,28.9c-0.9,3.1,0.9,6.4,4,7.3l53,15.3
			c3.1,0.9,6.4-0.9,7.3-4L99.9,80C100.8,76.9,99,73.6,95.9,72.7z M87.9,108.9c-0.2,0.6-0.8,0.9-1.4,0.8l-55.4-16
			c-0.6-0.2-0.9-0.8-0.8-1.4l5.1-17.8l57.3,17.3L87.9,108.9z M96.6,77.5l-0.9,3.3L38.5,63.6l0.8-2.7c0.2-0.6,0.8-0.9,1.4-0.8
			l55.2,16C96.4,76.3,96.8,76.9,96.6,77.5z"/>
		
			<rect x="37.7" y="93" transform="matrix(-0.9629 -0.2697 0.2697 -0.9629 74.9461 197.7371)" fill="#FFFFFF" width="26.6" height="1.5"/>
		
			<rect x="37.3" y="89.4" transform="matrix(-0.9624 -0.2717 0.2717 -0.9624 76.1203 190.7807)" fill="#FFFFFF" width="28" height="1.5"/>
		
			<rect x="36" y="85.7" transform="matrix(-0.9644 -0.2644 0.2644 -0.9644 77.7619 183.3805)" fill="#FFFFFF" width="30.4" height="1.5"/>
		<circle fill="#FFFFFF" cx="81.3" cy="99.4" r="3.7"/>
		<circle fill="#FFFFFF" cx="84.9" cy="100.2" r="2.9"/>
	</g>
</g>
</svg>
