<?xml version="1.0" encoding="utf-8"?>
<!-- Generator: Adobe Illustrator 18.0.0, SVG Export Plug-In . SVG Version: 6.00 Build 0)  -->
<!DOCTYPE svg PUBLIC "-//W3C//DTD SVG 1.1//EN" "http://www.w3.org/Graphics/SVG/1.1/DTD/svg11.dtd">
<svg version="1.1" id="Layer_1" xmlns="http://www.w3.org/2000/svg" xmlns:xlink="http://www.w3.org/1999/xlink" x="0px" y="0px"
	 viewBox="0 147.4 400 104.3" enable-background="new 0 147.4 400 104.3" xml:space="preserve">
<path fill="#A4CE52" d="M111.8,158v-10.6H1.9v21.2v48.6c0,2.5,1.6,5,3.7,6.2l47.3,27.4c2.2,1.2,5,1.2,7.5,0l47.6-27.4
	c2.2-1.2,3.7-3.7,3.7-6.2V158L111.8,158z"/>
<g>
	<g>
		<polyline fill="none" stroke="#FFFFFF" stroke-width="0.5" stroke-miterlimit="10" points="108.6,163.6 108.6,160.5 108.6,160.5 
			108.6,157.4 		"/>
		<polyline fill="none" stroke="#FFFFFF" stroke-width="0.5" stroke-miterlimit="10" points="108.6,153.3 108.6,150.2 105.5,150.2 
					"/>
		
			<line fill="none" stroke="#FFFFFF" stroke-width="0.5" stroke-miterlimit="10" stroke-dasharray="2.0864,2.0864" x1="99" y1="150.2" x2="11.5" y2="150.2"/>
		<polyline fill="none" stroke="#FFFFFF" stroke-width="0.5" stroke-miterlimit="10" points="8.1,150.2 5,150.2 5,153.3 		"/>
		<path fill="none" stroke="#FFFFFF" stroke-width="0.5" stroke-miterlimit="10" stroke-dasharray="1.9837,1.9837" d="M5,159.5v10.9
			v45.8c0,2.5,1.2,4.7,3.4,5.9l44.8,25.8c2.2,1.2,4.7,1.2,6.8,0l44.8-25.8c2.2-1.2,3.4-3.4,3.4-5.9v-49.5"/>
	</g>
</g>
<path fill="none" stroke="#FFFFFF" stroke-width="0.5" stroke-miterlimit="10" stroke-dasharray="2" d="M5,167.6c0,0,1.6-4.7,8.1,0
	c6.5,4.7,8.1,4.7,10,2.8"/>
<path fill="none" stroke="#FFFFFF" stroke-width="0.5" stroke-miterlimit="10" stroke-dasharray="2" d="M94.3,172.6
	c0,0,1.2-3.4,6.2,0c5.3,3.4,6.2,3.4,8.1,1.9"/>
<g>
	<path fill="#FFFFFF" d="M19.6,161.7H23c0,0.3,0,0.3,0,0.6s0,0.3,0,0.6c0.3-0.6,0.9-0.9,1.6-1.2s1.2-0.3,1.9-0.3
		c0.9,0,1.6,0.3,2.2,0.6c0.6,0.3,1.2,0.6,1.6,1.2c0.6,0.6,0.9,1.2,0.9,2.2c0.3,0.6,0.3,1.6,0.3,2.2c0,0.9-0.3,1.9-0.6,2.8
		c0,0.6-0.6,1.2-1.2,1.9c-0.6,0.3-1.2,0.9-1.9,1.2c-0.6,0-1.6,0.3-2.2,0.3c-0.6,0-0.9,0-1.2,0c-0.3,0-0.6-0.3-0.9-0.3v5h-3.7V161.7z
		 M23,170.4c0.6,0.3,1.2,0.3,2.2,0.3s1.6-0.3,2.2-0.9c0.3-0.6,0.6-1.2,0.6-2.2c0-0.3,0-0.6,0-1.2c0-0.3-0.3-0.6-0.3-0.9
		c-0.3-0.3-0.6-0.3-0.9-0.6c-0.3,0-0.6-0.3-1.2-0.3c-0.3,0-0.6,0.3-0.9,0.3c-0.3,0-0.6,0.3-0.6,0.6c-0.3,0.3-0.6,0.6-0.6,0.9
		S23,167,23,167.3V170.4z"/>
	<path fill="#FFFFFF" d="M33.3,167.6c0-0.9,0-1.6,0.3-2.5c0.3-0.6,0.6-1.2,1.2-1.9s1.2-0.9,1.9-1.2c0.9-0.3,1.9-0.6,2.8-0.6
		s1.9,0.3,2.5,0.6c0.6,0.3,1.6,0.6,1.9,1.2c0.6,0.6,0.9,1.2,1.2,1.9c0.3,0.6,0.3,1.6,0.3,2.5s0,1.6-0.3,2.5
		c-0.3,0.6-0.6,1.6-1.2,1.9c-0.6,0.6-1.2,0.9-1.9,1.2c-0.9,0.3-1.6,0.6-2.5,0.6s-1.9-0.3-2.5-0.6c-0.6-0.3-1.6-0.6-1.9-1.2
		c-0.9-0.6-1.2-1.2-1.6-1.9C33.3,169.2,33.3,168.6,33.3,167.6z M39.5,170.7c0.3,0,0.9,0,1.2-0.3c0.3-0.3,0.6-0.3,0.9-0.6
		c0.3-0.3,0.3-0.6,0.6-0.9c0-0.3,0.3-0.6,0.3-1.2s0-0.6-0.3-1.2c0-0.3-0.3-0.6-0.6-0.9s-0.6-0.6-0.9-0.6c-0.6-0.3-0.9-0.3-1.2-0.3
		c-0.3,0-0.9,0-1.2,0.3c-0.3,0.3-0.6,0.3-0.9,0.6c-0.3,0.3-0.3,0.6-0.6,0.9c0,0.3-0.3,0.6-0.3,1.2c0,0.6,0,0.6,0.3,1.2
		c0,0.3,0.3,0.6,0.6,0.9c0.3,0.3,0.6,0.6,0.9,0.6C38.6,170.7,38.9,170.7,39.5,170.7z"/>
	<path fill="#FFFFFF" d="M58.2,172c-0.6,0.6-1.2,0.9-1.9,1.2c-0.9,0.3-1.6,0.6-2.8,0.6c-0.9,0-1.9,0-2.5-0.3
		c-0.6-0.3-1.6-0.6-1.9-1.2c-0.6-0.6-0.9-1.2-1.2-1.9c-0.3-0.6-0.3-1.6-0.3-2.5s0.3-1.6,0.6-2.5c0.3-0.6,0.6-1.6,1.2-1.9
		c0.6-0.6,1.2-0.9,1.9-1.2c0.3-0.6,1.2-0.9,2.2-0.9c0.9,0,1.9,0.3,2.8,0.6c0.6,0.3,1.6,0.9,1.9,1.2l-2.2,2.5
		c-0.3-0.3-0.6-0.6-0.9-0.9c-0.3-0.3-0.9-0.3-1.6-0.3c-0.3,0-0.9,0-1.2,0.3c-0.3,0.3-0.6,0.3-0.9,0.6c-0.3,0.3-0.3,0.6-0.6,0.9
		c0,0.3-0.3,0.6-0.3,1.2c0,0.3,0,0.6,0.3,1.2c0,0.3,0.3,0.6,0.6,0.9c0.3,0.3,0.6,0.6,0.9,0.6s0.9,0.3,1.2,0.3c0.6,0,1.2,0,1.6-0.3
		c0.3-0.3,0.6-0.6,0.9-0.6L58.2,172z"/>
	<path fill="#FFFFFF" d="M59.8,157h3.4v8.4l3.4-3.7h4l-4,4.4l5,7.5h-4l-3.1-5l-0.9,0.9v3.7h-3.4V157H59.8z"/>
	<path fill="#FFFFFF" d="M83.1,172c0,0-0.3,0.3-0.6,0.3c-0.3,0.3-0.6,0.3-0.9,0.6c-0.3,0.3-0.9,0.3-1.6,0.6c-0.6,0-1.2,0.3-1.9,0.3
		c-0.9,0-1.9,0-2.8-0.3c-0.9-0.3-1.6-0.6-1.9-1.2c-0.6-0.6-0.9-1.2-1.2-1.9c-0.3-1.2-0.6-1.9-0.6-2.8s0-1.6,0.3-2.5
		c0.3-0.6,0.6-1.6,1.2-1.9c0.6-0.6,1.2-0.9,1.9-1.2c0.9-0.3,1.9-0.6,2.8-0.6c0.9,0,1.9,0.3,2.5,0.6c0.6,0.3,1.2,0.9,1.9,1.2
		c0.6,0.6,0.9,1.2,1.2,2.2c0.3,0.9,0.3,1.6,0.3,2.8v0.6h-8.4c0,0.6,0.3,1.2,0.9,1.6c0.6,0.6,1.2,0.6,2.2,0.6s1.6,0,2.2-0.3
		c0.6-0.3,0.9-0.6,1.2-0.6L83.1,172z M80,166.4c0-0.3,0-0.6,0-0.6c0-0.3-0.3-0.6-0.3-0.6s-0.6-0.6-0.9-0.6s-0.6-0.3-0.9-0.3
		s-0.6,0-0.9,0.3c-0.3,0-0.6,0.3-0.6,0.6c-0.3,0.3-0.3,0.3-0.6,0.6c0,0.3-0.3,0.6-0.3,0.6S80,166.4,80,166.4z"/>
	<path fill="#FFFFFF" d="M86.2,164.5h-1.9v-2.8h1.9v-3.4h3.4v3.4h3.1v2.8h-3.1v4.7c0,0.6,0,0.9,0.3,1.2s0.9,0.6,1.2,0.6
		c0.3,0,0.6,0,0.9-0.3c0.3,0,0.6-0.3,0.6-0.3l1.6,2.2c-0.9,0.6-2.2,1.2-3.7,1.2c-0.9,0-1.6,0-2.2-0.3c-0.6-0.3-0.9-0.6-1.2-0.9
		s-0.6-0.9-0.6-1.6c0-0.6-0.3-1.2-0.3-1.9C86.2,169.2,86.2,164.5,86.2,164.5z"/>
</g>
<path fill="#757575" d="M118.3,186.6h6.5c0,0.3,0,0.9,0,1.2c0,0.3,0,0.9,0,1.2c0.6-0.9,1.6-1.6,2.8-2.2c1.2-0.6,2.2-0.6,3.4-0.6
	c1.6,0,3.1,0.3,4.4,0.9c1.2,0.6,2.2,1.6,3.1,2.5c0.9,0.9,1.6,2.2,1.9,3.7c0.3,1.2,0.6,2.8,0.6,4.4c0,2.2-0.3,3.7-0.9,5.3
	s-1.6,2.8-2.8,3.7c-1.2,0.9-2.5,1.6-3.7,2.2c-1.2,0.6-2.8,0.6-4,0.6c-0.9,0-1.9,0-2.5-0.3c-0.6-0.3-1.2-0.3-1.9-0.6v9.6h-6.8V186.6z
	 M125.1,203.1c0.9,0.6,2.2,0.9,4,0.9c1.6,0,3.1-0.6,4-1.6c0.9-1.2,1.6-2.5,1.6-4.4c0-0.6,0-1.6-0.3-2.2s-0.3-1.2-0.9-1.9
	c-0.3-0.6-0.9-0.9-1.6-1.2s-1.2-0.6-2.2-0.6c-0.6,0-1.6,0-1.9,0.3c-0.6,0.3-0.9,0.6-1.6,1.2c-0.3,0.6-0.6,0.9-0.9,1.6
	s-0.3,1.2-0.3,1.9L125.1,203.1L125.1,203.1z"/>
<path fill="#757575" d="M144.1,197.8c0-1.6,0.3-3.1,0.9-4.7c0.6-1.6,1.2-2.8,2.5-3.7s2.2-1.9,3.7-2.5c1.6-0.6,3.1-0.9,5-0.9
	c1.9,0,3.4,0.3,4.7,0.9c1.6,0.6,2.8,1.6,3.7,2.5s1.9,2.2,2.5,3.7c0.6,1.6,0.9,3.1,0.9,4.7c0,1.6-0.3,3.1-0.9,4.7
	c-0.6,1.6-1.2,2.8-2.5,3.7c-0.9,0.9-2.2,1.9-3.7,2.5c-1.6,0.6-3.1,0.9-4.7,0.9c-1.6,0-3.4-0.3-5-0.9c-1.6-0.6-2.8-1.6-3.7-2.5
	s-1.9-2.2-2.5-3.7C144.4,200.9,144.1,199.4,144.1,197.8z M156,203.7c0.9,0,1.6-0.3,2.2-0.6c0.6-0.3,1.2-0.9,1.6-1.2
	c0.3-0.3,0.9-1.2,0.9-1.9c0.3-0.6,0.3-1.6,0.3-2.2s0-1.6-0.3-2.2s-0.6-1.2-0.9-1.9s-0.9-0.9-1.6-1.2c-0.6-0.3-1.6-0.6-2.2-0.6
	c-0.6,0-1.6,0.3-2.2,0.6s-1.2,0.6-1.6,1.2s-0.9,1.2-0.9,1.9s-0.3,1.6-0.3,2.2s0,1.6,0.3,2.2c0.3,0.6,0.6,1.2,0.9,1.9
	c0.3,0.6,0.9,0.9,1.6,1.2C154.4,203.4,155.3,203.7,156,203.7z"/>
<path fill="#757575" d="M191.8,205.9c-0.9,0.9-2.2,1.9-3.7,2.5c-1.6,0.6-3.1,0.9-5.3,0.9c-1.9,0-3.4-0.3-5-0.9
	c-1.6-0.6-2.8-1.2-3.7-2.5c-0.9-0.9-1.9-2.2-2.5-3.7c-0.6-1.6-0.9-3.1-0.9-4.7c0-1.6,0.3-3.1,0.9-4.7c0.6-1.6,1.6-2.8,2.5-3.7
	c0.9-0.9,2.2-1.9,3.7-2.5c1.6-0.6,3.1-0.9,4.7-0.9c1.9,0,3.7,0.3,5.3,0.9c1.6,0.6,2.8,1.6,3.7,2.5l-4,4.4c-0.6-0.6-1.2-0.9-1.9-1.6
	c-0.6-0.3-1.6-0.6-2.8-0.6c-0.9,0-1.6,0.3-2.2,0.6c-0.6,0.3-1.2,0.6-1.6,1.2c-0.3,0.6-0.9,1.2-0.9,1.9c0,0.6-0.3,1.6-0.3,2.2
	s0,1.6,0.3,2.2s0.6,1.2,0.9,1.9s0.9,0.9,1.6,1.2c0.6,0.3,1.2,0.6,2.2,0.6c1.2,0,2.2-0.3,2.8-0.6c0.9-0.3,1.6-0.9,1.9-1.6
	L191.8,205.9z"/>
<path fill="#757575" d="M194.9,177.3h6.8v16.2l6.8-6.8h7.8l-7.8,8.1l9,14h-7.8l-5.6-9.3l-1.9,2.2v7.5h-6.8v-31.8H194.9z"/>
<path fill="#757575" d="M239.7,206.5c-0.3,0.3-0.6,0.3-1.2,0.9c-0.6,0.3-1.2,0.6-1.9,0.9c-0.9,0.3-1.9,0.6-2.8,0.9
	c-1.2,0.3-2.5,0.3-3.7,0.3c-1.9,0-3.7-0.3-5-0.9c-1.6-0.6-2.8-1.2-3.7-2.5c-0.9-0.9-1.9-2.2-2.5-3.7c-0.6-1.6-0.9-3.1-0.9-5
	c0-1.6,0.3-3.1,0.9-4.4c0.6-1.6,1.2-2.8,2.2-3.7c0.9-0.9,2.2-1.9,3.7-2.5c1.6-0.6,3.1-0.9,4.7-0.9c1.6,0,3.4,0.3,4.7,0.9
	c1.2,0.6,2.5,1.6,3.4,2.5c0.9,1.2,1.6,2.5,2.2,4c0.6,1.6,0.6,3.1,0.6,5v1.2h-15.9c0,1.2,0.6,2.2,1.6,3.1c0.9,0.9,2.5,1.2,4.4,1.2
	c1.9,0,3.1-0.3,4.4-0.9c1.2-0.6,1.9-0.9,2.5-1.2L239.7,206.5z M233.8,195.3c0-0.6,0-0.9-0.3-1.6s-0.6-0.9-0.9-1.2
	c-0.3-0.3-0.9-0.6-1.6-0.9c-0.6-0.3-1.2-0.3-2.2-0.3s-1.6,0-2.2,0.3c-0.6,0.3-1.2,0.6-1.6,0.9s-0.6,0.9-0.9,1.2
	c-0.3,0.6-0.3,0.9-0.3,1.6H233.8z"/>
<path fill="#757575" d="M245.6,191.9h-3.4v-5.3h3.4v-6.5h6.8v6.8h5.6v5.3h-5.6v8.7c0,0.9,0.3,1.9,0.6,2.5c0.3,0.6,1.2,0.9,1.9,0.9
	s1.2,0,1.9-0.3s0.9-0.6,1.6-0.9l2.8,4c-2.2,1.6-4.4,2.5-6.8,2.5c-1.6,0-2.8-0.3-4-0.6c-0.9-0.3-1.9-0.9-2.5-1.9
	c-0.6-0.9-1.2-1.9-1.6-2.8c-0.3-1.2-0.3-2.5-0.3-3.7v-8.7H245.6z"/>
<path fill="#A4CE52" d="M266.8,199.4c0.3,0.3,0.9,0.9,1.6,1.2c0.6,0.3,1.2,0.9,1.9,1.2c0.6,0.3,1.6,0.6,2.2,0.9
	c0.9,0.3,1.6,0.3,2.5,0.3c0.6,0,0.9,0,1.6-0.3c0.6-0.3,0.9-0.3,1.6-0.6c0.3-0.3,0.9-0.6,0.9-0.9c0.3-0.3,0.3-0.9,0.3-1.6
	c0-1.2-0.6-2.2-1.6-2.8c-1.2-0.6-2.8-1.2-5.3-1.9c-1.2-0.3-2.2-0.6-3.4-1.2c-0.9-0.6-1.9-1.2-2.5-1.9c-0.6-0.6-1.2-1.6-1.9-2.5
	c-0.3-0.9-0.6-2.2-0.6-3.1c0-1.2,0.3-2.5,0.6-3.7c0.6-1.2,1.2-2.2,2.2-3.1c0.9-0.9,2.2-1.6,3.7-2.2c1.6-0.6,3.1-0.9,5-0.9
	c1.6,0,3.1,0.3,4.4,0.6c1.2,0.3,2.2,0.6,3.1,1.2c0.9,0.3,1.6,0.9,2.2,1.6s0.9,0.9,1.2,1.2l-4,4.7c-0.3-0.3-0.6-0.6-1.2-0.9
	c-0.3-0.3-0.9-0.6-1.6-0.9s-1.2-0.6-1.9-0.6c-0.6-0.3-1.2-0.3-2.2-0.3c-0.6,0-0.9,0-1.6,0.3c-0.6,0.3-0.9,0.3-1.2,0.6
	s-0.6,0.6-0.9,0.9c-0.3,0.3-0.3,0.6-0.3,1.2c0,0.9,0.6,1.9,1.6,2.5c1.2,0.6,2.8,1.2,4.7,1.6c1.2,0.3,2.2,0.6,3.4,1.2
	c1.2,0.6,2.2,1.2,3.1,1.9c0.9,0.9,1.6,1.9,2.2,2.8c0.6,1.2,0.9,2.5,0.9,4c0,1.6-0.3,2.8-0.9,4c-0.6,1.2-1.6,2.2-2.5,3.1
	c-0.9,0.9-2.5,1.6-3.7,2.2c-1.6,0.6-3.1,0.6-4.7,0.6s-3.1,0-4.4-0.3c-1.2-0.3-2.5-0.6-3.4-1.2c-0.9-0.6-1.9-0.9-2.8-1.6
	c-0.9-0.6-1.6-1.2-2.2-1.9L266.8,199.4z"/>
<path fill="#A4CE52" d="M307.5,209.6c-2.2,0-4.4-0.3-6.5-1.2s-3.7-2.2-5.3-3.4c-1.6-1.6-2.5-3.1-3.4-5.3c-0.9-2.2-1.2-4.4-1.2-6.5
	c0-2.5,0.3-4.7,1.2-6.5s1.9-3.7,3.4-5.3c1.6-1.6,3.1-2.5,5.3-3.4c1.9-0.9,4-1.2,6.5-1.2s4.4,0.3,6.5,1.2c1.9,0.9,3.7,1.9,5.3,3.4
	c1.6,1.6,2.5,3.1,3.4,5.3c0.9,1.9,1.2,4,1.2,6.5c0,2.2-0.3,4.4-1.2,6.5s-1.9,3.7-3.4,5.3c-1.6,1.6-3.1,2.5-5.3,3.4
	S309.7,209.6,307.5,209.6z M307.5,203.1c1.2,0,2.5-0.3,3.7-0.9c1.2-0.6,2.2-1.2,2.8-2.2c0.6-0.9,1.2-1.9,1.9-3.1
	c0.3-1.2,0.6-2.5,0.6-3.7c0-1.2-0.3-2.5-0.6-3.7s-0.9-2.2-1.9-3.1c-0.6-0.9-1.6-1.6-2.8-2.2c-1.2-0.6-2.5-0.9-3.7-0.9
	c-1.2,0-2.5,0.3-3.7,0.9c-1.2,0.6-2.2,1.2-2.8,2.2c-0.6,0.9-1.2,1.9-1.9,3.1c-0.3,1.2-0.6,2.5-0.6,3.7c0,1.2,0.3,2.5,0.6,3.7
	c0.3,1.2,0.9,2.2,1.9,3.1c0.6,0.9,1.9,1.6,2.8,2.2C304.7,202.8,306,203.1,307.5,203.1z"/>
<path fill="#A4CE52" d="M328.7,177.3h7.2v12.1h13.7v-12.1h7.2v31.4h-7.2v-13.1h-13.7v13.1h-7.2V177.3z"/>
<path fill="#A4CE52" d="M377.9,209.6c-2.2,0-4.4-0.3-6.5-1.2c-1.9-0.9-3.7-1.9-5.3-3.4c-1.6-1.6-2.5-3.1-3.4-5.3
	c-0.9-2.2-1.2-4.4-1.2-6.5c0-2.5,0.3-4.7,1.2-6.5s1.9-3.7,3.4-5.3c1.6-1.6,3.1-2.5,5.3-3.4c1.9-0.9,4-1.2,6.5-1.2s4.4,0.3,6.5,1.2
	c1.9,0.9,3.7,1.9,5.3,3.4c1.6,1.6,2.5,3.1,3.4,5.3c0.9,1.9,1.2,4,1.2,6.5c0,2.2-0.3,4.4-1.2,6.5s-1.9,3.7-3.4,5.3
	c-1.6,1.6-3.1,2.5-5.3,3.4S380.4,209.6,377.9,209.6z M377.9,203.1c1.2,0,2.5-0.3,3.7-0.9c1.2-0.6,2.2-1.2,2.8-2.2
	c0.6-0.9,1.2-1.9,1.9-3.1c0.3-1.2,0.6-2.5,0.6-3.7c0-1.2-0.3-2.5-0.6-3.7s-0.9-2.2-1.9-3.1c-0.6-0.9-1.6-1.6-2.8-2.2
	c-1.2-0.6-2.5-0.9-3.7-0.9c-1.2,0-2.5,0.3-3.7,0.9c-1.2,0.6-2.2,1.2-2.8,2.2c-0.6,0.9-1.2,1.9-1.9,3.1c-0.3,1.2-0.6,2.5-0.6,3.7
	c0,1.2,0.3,2.5,0.6,3.7c0.3,1.2,0.9,2.2,1.9,3.1c0.6,0.9,1.9,1.6,2.8,2.2C375.4,202.8,376.7,203.1,377.9,203.1z"/>
</svg>
