<?xml version="1.0" encoding="utf-8"?>
<!-- Generator: Adobe Illustrator 18.0.0, SVG Export Plug-In . SVG Version: 6.00 Build 0)  -->
<!DOCTYPE svg PUBLIC "-//W3C//DTD SVG 1.1//EN" "http://www.w3.org/Graphics/SVG/1.1/DTD/svg11.dtd">
<svg version="1.1" id="Layer_1" xmlns="http://www.w3.org/2000/svg" xmlns:xlink="http://www.w3.org/1999/xlink" x="0px" y="0px"
	 viewBox="0 0 557 134" enable-background="new 0 0 557 134" xml:space="preserve">
<g>
	<path fill="#F58B20" d="M146.7,46.5h9.3c0.1,0.6,0.2,1.2,0.2,1.7c0,0.6,0.1,1.1,0.1,1.7c1-1.3,2.4-2.3,4-3c1.6-0.7,3.3-1,5.1-1
		c2.3,0,4.3,0.5,6.1,1.3c1.8,0.9,3.2,2.1,4.4,3.6c1.2,1.5,2,3.2,2.6,5.2c0.6,2,0.9,4,0.9,6c0,2.9-0.5,5.5-1.5,7.6
		c-1,2.2-2.3,3.9-3.8,5.3c-1.6,1.4-3.4,2.4-5.3,3.1c-2,0.7-3.9,1-5.9,1c-1.5,0-2.8-0.1-3.8-0.4c-1-0.3-1.9-0.5-2.7-0.8v13.7h-9.7
		V46.5z M156.4,69.8c1.3,0.9,3.1,1.3,5.6,1.3c2.4,0,4.3-0.8,5.6-2.4c1.4-1.6,2.1-3.7,2.1-6.4c0-1-0.1-2-0.4-3
		c-0.2-1-0.6-1.9-1.1-2.6c-0.5-0.7-1.2-1.3-2-1.8c-0.8-0.4-1.9-0.7-3.1-0.7c-1.1,0-2,0.2-2.9,0.6c-0.8,0.4-1.5,0.9-2.1,1.6
		c-0.6,0.7-1,1.4-1.3,2.3c-0.3,0.9-0.4,1.7-0.4,2.6V69.8z"/>
	<path fill="#F58B20" d="M183.8,62.3c0-2.3,0.4-4.5,1.2-6.6c0.8-2,2-3.8,3.5-5.4c1.5-1.5,3.3-2.7,5.4-3.6c2.1-0.9,4.4-1.3,6.9-1.3
		c2.5,0,4.8,0.4,6.9,1.3c2.1,0.9,3.8,2.1,5.3,3.6c1.5,1.5,2.6,3.3,3.5,5.4c0.8,2,1.2,4.2,1.2,6.6c0,2.3-0.4,4.5-1.2,6.6
		c-0.8,2-2,3.8-3.5,5.4c-1.5,1.5-3.3,2.7-5.3,3.6c-2.1,0.9-4.4,1.4-6.9,1.4c-2.5,0-4.8-0.5-6.9-1.4c-2.1-0.9-3.9-2.1-5.4-3.6
		c-1.5-1.5-2.6-3.3-3.5-5.4C184.2,66.8,183.8,64.6,183.8,62.3z M200.8,70.8c1.2,0,2.3-0.2,3.2-0.7c0.9-0.5,1.7-1.1,2.4-1.9
		c0.7-0.8,1.1-1.7,1.5-2.7c0.3-1,0.5-2.1,0.5-3.1c0-1.1-0.2-2.1-0.5-3.1c-0.3-1-0.8-1.9-1.5-2.7c-0.7-0.8-1.5-1.4-2.4-1.9
		s-2-0.7-3.2-0.7c-1.2,0-2.3,0.2-3.3,0.7c-1,0.5-1.8,1.1-2.4,1.9c-0.6,0.8-1.1,1.7-1.5,2.7c-0.3,1-0.5,2.1-0.5,3.1
		c0,1.1,0.2,2.1,0.5,3.1c0.3,1,0.8,1.9,1.5,2.7c0.6,0.8,1.4,1.5,2.4,1.9C198.5,70.6,199.6,70.8,200.8,70.8z"/>
	<path fill="#F58B20" d="M252,74c-1.3,1.4-3,2.7-5.2,3.7c-2.1,1-4.7,1.6-7.6,1.6c-2.6,0-4.9-0.4-7-1.2c-2.1-0.8-3.9-2-5.4-3.5
		c-1.5-1.5-2.6-3.3-3.5-5.4c-0.8-2.1-1.2-4.3-1.2-6.8c0-2.3,0.4-4.5,1.3-6.6c0.9-2,2-3.8,3.5-5.4c1.5-1.5,3.3-2.7,5.4-3.6
		c2.1-0.9,4.4-1.3,6.9-1.3c2.9,0,5.4,0.5,7.5,1.4c2.1,0.9,3.9,2.2,5.3,3.8l-5.9,6.3c-0.7-0.8-1.6-1.5-2.6-2.2
		c-1-0.6-2.4-0.9-4.1-0.9c-1.2,0-2.2,0.2-3.1,0.7c-0.9,0.5-1.7,1.1-2.4,1.9c-0.7,0.8-1.1,1.7-1.5,2.7c-0.3,1-0.5,2.1-0.5,3.2
		c0,1,0.2,2.1,0.5,3.1c0.3,1,0.8,1.9,1.5,2.7c0.7,0.8,1.4,1.4,2.4,1.9c0.9,0.5,2,0.7,3.1,0.7c1.7,0,3.1-0.3,4.2-1
		c1.1-0.7,2-1.4,2.7-2.1L252,74z"/>
	<path fill="#F58B20" d="M256.4,33.1h9.7v23.4l9.7-10h11l-11.3,11.7l12.9,20h-11.3L269,64.8l-2.8,2.9v10.5h-9.7V33.1z"/>
	<path fill="#F58B20" d="M320.3,74.7c-0.4,0.2-0.9,0.6-1.6,1.1c-0.7,0.5-1.7,1-2.8,1.5c-1.1,0.5-2.5,0.9-4.1,1.3
		c-1.6,0.4-3.4,0.6-5.4,0.6c-2.7,0-5.1-0.4-7.3-1.2c-2.2-0.8-4-2-5.5-3.5c-1.5-1.5-2.7-3.3-3.4-5.4c-0.8-2.1-1.2-4.4-1.2-6.9
		c0-2.2,0.4-4.3,1.1-6.4c0.7-2,1.8-3.8,3.2-5.4c1.4-1.5,3.1-2.8,5.1-3.7c2-0.9,4.3-1.4,6.9-1.4c2.6,0,4.8,0.5,6.7,1.4
		c1.9,0.9,3.6,2.1,4.9,3.7c1.3,1.6,2.3,3.5,3,5.7s1,4.7,1,7.3v1.6h-22.5c0,1.7,0.8,3.2,2.3,4.5c1.5,1.3,3.5,1.9,6,1.9
		c2.5,0,4.6-0.4,6.1-1.1c1.6-0.7,2.7-1.4,3.4-1.9L320.3,74.7z M311.8,59c0-0.7-0.1-1.4-0.4-2.1c-0.3-0.7-0.7-1.3-1.2-1.9
		c-0.5-0.6-1.2-1.1-2-1.5c-0.8-0.4-1.8-0.6-2.9-0.6c-1.1,0-2.1,0.2-3,0.6c-0.9,0.4-1.6,0.9-2.1,1.5c-0.6,0.6-1,1.2-1.3,1.9
		c-0.3,0.7-0.4,1.4-0.4,2.1H311.8z"/>
	<path fill="#F58B20" d="M328.9,54.1h-5v-7.6h5v-9.6h9.7v9.6h8.2v7.6h-8.2v12.5c0,1.5,0.3,2.7,0.9,3.5c0.6,0.8,1.6,1.2,2.9,1.2
		c1,0,1.8-0.2,2.6-0.5s1.4-0.7,2-1.2l3.9,5.9c-3.1,2.4-6.4,3.6-10,3.6c-2.3,0-4.1-0.3-5.7-1c-1.5-0.7-2.8-1.6-3.7-2.7
		c-0.9-1.1-1.6-2.5-2-4.2c-0.4-1.6-0.6-3.4-0.6-5.4V54.1z"/>
	<path fill="#8DC641" d="M358.9,64.7c0.6,0.6,1.3,1.3,2.1,1.9c0.8,0.7,1.7,1.2,2.6,1.8c1,0.5,2,1,3.2,1.3c1.1,0.3,2.4,0.5,3.7,0.5
		c0.8,0,1.5-0.1,2.3-0.3c0.8-0.2,1.5-0.6,2.1-1c0.6-0.4,1.1-0.9,1.5-1.6c0.4-0.6,0.6-1.3,0.6-2.1c0-1.7-0.8-3-2.4-3.9
		c-1.6-0.9-4.2-1.8-7.7-2.7c-1.7-0.4-3.3-1-4.8-1.8c-1.5-0.8-2.7-1.7-3.8-2.8c-1.1-1.1-1.9-2.3-2.5-3.7c-0.6-1.4-0.9-2.9-0.9-4.7
		c0-1.9,0.3-3.7,1-5.3c0.7-1.7,1.7-3.1,3.1-4.4s3.1-2.3,5.1-3c2-0.7,4.5-1.1,7.3-1.1c2.3,0,4.3,0.2,6.1,0.7c1.8,0.5,3.3,1,4.5,1.7
		c1.2,0.7,2.3,1.3,3,2c0.8,0.7,1.4,1.2,1.8,1.7l-5.9,6.5c-0.5-0.4-1.1-0.8-1.7-1.3c-0.7-0.5-1.4-0.9-2.2-1.3c-0.8-0.4-1.7-0.7-2.7-1
		c-1-0.3-2-0.4-3.1-0.4c-0.7,0-1.4,0.1-2.1,0.3c-0.7,0.2-1.3,0.5-1.9,0.9c-0.6,0.4-1,0.8-1.3,1.3c-0.3,0.5-0.5,1.1-0.5,1.7
		c0,1.5,0.8,2.8,2.4,3.7c1.6,0.9,3.8,1.7,6.7,2.4c1.7,0.4,3.3,1,4.9,1.7c1.6,0.7,3,1.6,4.3,2.7c1.3,1.1,2.3,2.5,3,4.2
		c0.8,1.6,1.1,3.6,1.1,6c0,2-0.5,3.9-1.3,5.6c-0.9,1.7-2.1,3.2-3.7,4.5c-1.6,1.3-3.4,2.2-5.5,2.9c-2.1,0.7-4.4,1-6.8,1
		c-2.3,0-4.3-0.2-6.1-0.6c-1.8-0.4-3.5-1-5-1.7c-1.5-0.7-2.8-1.5-4-2.4c-1.2-0.9-2.2-1.8-3.1-2.8L358.9,64.7z"/>
	<path fill="#8DC641" d="M417.2,79.3c-3.3,0-6.4-0.6-9.3-1.8c-2.9-1.2-5.3-2.9-7.4-5c-2.1-2.1-3.7-4.6-4.9-7.5
		c-1.2-2.9-1.8-6-1.8-9.3c0-3.4,0.6-6.5,1.8-9.4c1.2-2.9,2.8-5.4,4.9-7.5c2.1-2.1,4.6-3.8,7.4-5c2.9-1.2,6-1.8,9.3-1.8
		c3.3,0,6.4,0.6,9.3,1.8c2.9,1.2,5.3,2.9,7.4,5c2.1,2.1,3.7,4.6,4.9,7.5c1.2,2.9,1.8,6,1.8,9.4c0,3.3-0.6,6.4-1.8,9.3
		c-1.2,2.9-2.8,5.4-4.9,7.5c-2.1,2.1-4.6,3.8-7.4,5C423.6,78.7,420.5,79.3,417.2,79.3z M417.2,69.7c2,0,3.8-0.4,5.3-1.1
		c1.6-0.8,2.9-1.8,4-3.1c1.1-1.3,1.9-2.8,2.5-4.5c0.6-1.7,0.9-3.5,0.9-5.5c0-1.9-0.3-3.8-0.9-5.5c-0.6-1.7-1.4-3.2-2.5-4.5
		c-1.1-1.3-2.4-2.3-4-3c-1.6-0.7-3.4-1.1-5.3-1.1c-2,0-3.8,0.4-5.4,1.1c-1.6,0.7-2.9,1.8-4,3c-1.1,1.3-1.9,2.8-2.5,4.5
		c-0.6,1.7-0.9,3.5-0.9,5.5c0,1.9,0.3,3.8,0.9,5.5c0.6,1.7,1.4,3.2,2.5,4.5c1.1,1.3,2.5,2.3,4,3.1C413.4,69.3,415.2,69.7,417.2,69.7
		z"/>
	<path fill="#8DC641" d="M447.7,33.1h10.2v17.3h19.5V33.1h10.2v45h-10.2V59.7h-19.5v18.5h-10.2V33.1z"/>
	<path fill="#8DC641" d="M518,79.3c-3.3,0-6.4-0.6-9.3-1.8c-2.9-1.2-5.3-2.9-7.4-5c-2.1-2.1-3.7-4.6-4.9-7.5c-1.2-2.9-1.8-6-1.8-9.3
		c0-3.4,0.6-6.5,1.8-9.4c1.2-2.9,2.8-5.4,4.9-7.5c2.1-2.1,4.6-3.8,7.4-5c2.9-1.2,6-1.8,9.3-1.8c3.3,0,6.4,0.6,9.3,1.8
		c2.9,1.2,5.3,2.9,7.4,5c2.1,2.1,3.7,4.6,4.9,7.5c1.2,2.9,1.8,6,1.8,9.4c0,3.3-0.6,6.4-1.8,9.3c-1.2,2.9-2.8,5.4-4.9,7.5
		c-2.1,2.1-4.6,3.8-7.4,5C524.4,78.7,521.3,79.3,518,79.3z M518,69.7c2,0,3.8-0.4,5.3-1.1c1.6-0.8,2.9-1.8,4-3.1
		c1.1-1.3,1.9-2.8,2.5-4.5c0.6-1.7,0.9-3.5,0.9-5.5c0-1.9-0.3-3.8-0.9-5.5c-0.6-1.7-1.4-3.2-2.5-4.5c-1.1-1.3-2.4-2.3-4-3
		c-1.6-0.7-3.4-1.1-5.3-1.1c-2,0-3.8,0.4-5.4,1.1c-1.6,0.7-2.9,1.8-4,3c-1.1,1.3-1.9,2.8-2.5,4.5c-0.6,1.7-0.9,3.5-0.9,5.5
		c0,1.9,0.3,3.8,0.9,5.5c0.6,1.7,1.4,3.2,2.5,4.5c1.1,1.3,2.5,2.3,4,3.1C514.2,69.3,516,69.7,518,69.7z"/>
</g>
<g>
	<path fill="#8DC641" d="M132.3,26.2V15.3H19.2v21.9l0,49.9c0,2.7,1.4,5.2,3.8,6.6l49,28.3c2.4,1.4,5.2,1.4,7.6,0l49-28.3
		c2.4-1.4,3.8-3.9,3.8-6.6L132.3,26.2L132.3,26.2z"/>
	<g>
		<g>
			<polyline fill="none" stroke="#FFFFFF" stroke-miterlimit="10" points="129.2,29.6 129.2,28.6 129.2,28.6 129.2,27.6 			"/>
			
				<line fill="none" stroke="#FFFFFF" stroke-miterlimit="10" stroke-dasharray="1.6623,1.6623" x1="129.2" y1="25.9" x2="129.2" y2="20.1"/>
			<polyline fill="none" stroke="#FFFFFF" stroke-miterlimit="10" points="129.2,19.3 129.2,18.3 128.2,18.3 			"/>
			
				<line fill="none" stroke="#FFFFFF" stroke-miterlimit="10" stroke-dasharray="1.9798,1.9798" x1="126.2" y1="18.3" x2="24.2" y2="18.3"/>
			<polyline fill="none" stroke="#FFFFFF" stroke-miterlimit="10" points="23.3,18.3 22.3,18.3 22.3,19.3 			"/>
			<path fill="none" stroke="#FFFFFF" stroke-miterlimit="10" stroke-dasharray="1.9915,1.9915" d="M22.3,21.3V39l0,47.2
				c0,2.6,1.4,4.9,3.6,6.2l46.3,26.7c2.2,1.3,5,1.3,7.2,0l46.3-26.7c2.2-1.3,3.6-3.7,3.6-6.2l0-55.6"/>
		</g>
	</g>
</g>
<g>
	<g>
		<polyline fill="none" stroke="#FFFFFF" stroke-width="0.75" stroke-miterlimit="10" points="105.7,607 105.7,606 105.7,606 
			105.7,605 		"/>
		
			<line fill="none" stroke="#FFFFFF" stroke-width="0.75" stroke-miterlimit="10" stroke-dasharray="1.6311,1.6311" x1="105.7" y1="603.4" x2="105.7" y2="601"/>
		<polyline fill="none" stroke="#FFFFFF" stroke-width="0.75" stroke-miterlimit="10" points="105.7,600.1 105.7,599.1 104.7,599.1 
					"/>
		
			<line fill="none" stroke="#FFFFFF" stroke-width="0.75" stroke-miterlimit="10" stroke-dasharray="1.9852,1.9852" x1="102.7" y1="599.1" x2="36.2" y2="599.1"/>
		<polyline fill="none" stroke="#FFFFFF" stroke-width="0.75" stroke-miterlimit="10" points="35.2,599.1 34.2,599.1 34.2,600.1 		
			"/>
		<path fill="none" stroke="#FFFFFF" stroke-width="0.75" stroke-miterlimit="10" stroke-dasharray="1.9814,1.9814" d="M34.2,602.1
			V613l0,31.6c0,1.7,0.9,3.3,2.4,4.2l30.9,17.9c1.5,0.9,3.3,0.9,4.8,0l30.9-17.9c1.5-0.9,2.4-2.4,2.4-4.2l0-36.5"/>
	</g>
</g>
</svg>
