<?xml version="1.0" encoding="utf-8"?>
<!-- Generator: Adobe Illustrator 18.0.0, SVG Export Plug-In . SVG Version: 6.00 Build 0)  -->
<!DOCTYPE svg PUBLIC "-//W3C//DTD SVG 1.1//EN" "http://www.w3.org/Graphics/SVG/1.1/DTD/svg11.dtd">
<svg version="1.1" xmlns="http://www.w3.org/2000/svg" xmlns:xlink="http://www.w3.org/1999/xlink" x="0px" y="0px"
	 viewBox="0 0 225 216" enable-background="new 0 0 225 216" xml:space="preserve">
<g id="Layer_2">
</g>
<g id="Layer_4">
</g>
<g id="Layer_5">
</g>
<g id="Layer_3">
</g>
<g id="Layer_6" display="none">
	<path display="inline" fill="#FBB617" d="M216.3,28.5V8.3H6.6v40.6l0,92.6c0,5,2.7,9.7,7,12.2l90.8,52.4c4.4,2.5,9.7,2.5,14.1,0
		l90.8-52.4c4.4-2.5,7-7.2,7-12.2L216.3,28.5L216.3,28.5z"/>
	<g display="inline">
		<g>
			<polyline fill="none" stroke="#FFFFFF" stroke-width="0.75" stroke-miterlimit="10" points="210.6,33.9 210.6,32.9 210.5,32.9 
				210.5,31.9 			"/>
			
				<line fill="none" stroke="#FFFFFF" stroke-width="0.75" stroke-miterlimit="10" stroke-dasharray="1.9015,1.9015" x1="210.5" y1="30" x2="210.5" y2="15.7"/>
			<polyline fill="none" stroke="#FFFFFF" stroke-width="0.75" stroke-miterlimit="10" points="210.5,14.7 210.5,13.7 209.5,13.7 
							"/>
			
				<line fill="none" stroke="#FFFFFF" stroke-width="0.75" stroke-miterlimit="10" stroke-dasharray="1.9818,1.9818" x1="207.6" y1="13.7" x2="14.3" y2="13.7"/>
			<polyline fill="none" stroke="#FFFFFF" stroke-width="0.75" stroke-miterlimit="10" points="13.3,13.7 12.3,13.7 12.3,14.7 			
				"/>
			<path fill="none" stroke="#FFFFFF" stroke-width="0.75" stroke-miterlimit="10" stroke-dasharray="2.0022,2.0022" d="M12.3,16.8
				v35.3l0,87.5c0,4.8,2.5,9.1,6.7,11.5l85.8,49.5c4.1,2.4,9.2,2.4,13.3,0l85.8-49.5c4.1-2.4,6.7-6.8,6.7-11.5l0-104.8"/>
		</g>
	</g>
	<path display="inline" fill="none" stroke="#FFFFFF" stroke-width="0.75" stroke-miterlimit="10" stroke-dasharray="2" d="
		M12.3,46.8c0,0,2.8-9,15.4,0s15.4,8.7,19.3,5.2"/>
	<path display="inline" fill="none" stroke="#FFFFFF" stroke-width="0.75" stroke-miterlimit="10" stroke-dasharray="2" d="
		M183.2,56.2c0,0,2.2-6.7,12.1,0s12.1,6.5,15.2,3.9"/>
	<g display="inline">
		<path fill="none" stroke="#FFFFFF" stroke-miterlimit="10" d="M40.3,35.7h6.5c0.1,0.4,0.1,0.8,0.1,1.2s0.1,0.8,0.1,1.2
			c0.7-0.9,1.7-1.6,2.8-2.1c1.1-0.5,2.3-0.7,3.5-0.7c1.6,0,3,0.3,4.3,0.9c1.2,0.6,2.3,1.5,3.1,2.5c0.8,1.1,1.4,2.3,1.8,3.6
			s0.6,2.8,0.6,4.2c0,2-0.3,3.8-1,5.3c-0.7,1.5-1.6,2.8-2.7,3.7c-1.1,1-2.3,1.7-3.7,2.2c-1.4,0.5-2.8,0.7-4.1,0.7
			c-1.1,0-2-0.1-2.6-0.3c-0.7-0.2-1.3-0.4-1.9-0.6v9.6h-6.8V35.7z M47.1,52c0.9,0.6,2.2,0.9,3.9,0.9c1.7,0,3-0.6,3.9-1.7
			c1-1.1,1.4-2.6,1.4-4.5c0-0.7-0.1-1.4-0.3-2.1c-0.2-0.7-0.4-1.3-0.8-1.8c-0.4-0.5-0.8-0.9-1.4-1.3c-0.6-0.3-1.3-0.5-2.1-0.5
			c-0.8,0-1.4,0.1-2,0.4c-0.6,0.3-1.1,0.7-1.5,1.1c-0.4,0.5-0.7,1-0.9,1.6c-0.2,0.6-0.3,1.2-0.3,1.8V52z"/>
		<path fill="none" stroke="#FFFFFF" stroke-miterlimit="10" d="M66.2,46.7c0-1.6,0.3-3.2,0.9-4.6c0.6-1.4,1.4-2.7,2.4-3.8
			c1-1.1,2.3-1.9,3.8-2.5c1.5-0.6,3.1-0.9,4.8-0.9c1.8,0,3.4,0.3,4.8,0.9c1.4,0.6,2.7,1.5,3.7,2.5c1,1.1,1.8,2.3,2.4,3.8
			c0.6,1.4,0.9,3,0.9,4.6c0,1.6-0.3,3.2-0.9,4.6c-0.6,1.4-1.4,2.7-2.4,3.8c-1,1.1-2.3,1.9-3.7,2.6c-1.4,0.6-3.1,0.9-4.8,0.9
			c-1.8,0-3.4-0.3-4.8-0.9c-1.5-0.6-2.7-1.5-3.8-2.6c-1-1.1-1.9-2.3-2.4-3.8C66.5,49.9,66.2,48.4,66.2,46.7z M78.1,52.7
			c0.9,0,1.6-0.2,2.3-0.5c0.7-0.3,1.2-0.8,1.7-1.3c0.5-0.6,0.8-1.2,1-1.9c0.2-0.7,0.3-1.4,0.3-2.2s-0.1-1.5-0.3-2.2
			c-0.2-0.7-0.6-1.3-1-1.9c-0.5-0.5-1-1-1.7-1.3c-0.7-0.3-1.4-0.5-2.3-0.5s-1.6,0.2-2.3,0.5c-0.7,0.3-1.2,0.8-1.7,1.3
			c-0.4,0.6-0.8,1.2-1,1.9c-0.2,0.7-0.4,1.4-0.4,2.2s0.1,1.5,0.4,2.2c0.2,0.7,0.6,1.3,1,1.9c0.4,0.6,1,1,1.7,1.3
			C76.5,52.5,77.3,52.7,78.1,52.7z"/>
		<path fill="none" stroke="#FFFFFF" stroke-miterlimit="10" d="M114,54.9c-0.9,1-2.1,1.9-3.6,2.6s-3.3,1.1-5.3,1.1
			c-1.8,0-3.4-0.3-4.9-0.9c-1.5-0.6-2.7-1.4-3.8-2.5c-1-1.1-1.9-2.3-2.4-3.8c-0.6-1.4-0.9-3-0.9-4.8c0-1.6,0.3-3.2,0.9-4.6
			c0.6-1.4,1.4-2.7,2.5-3.8c1.1-1.1,2.3-1.9,3.8-2.5c1.5-0.6,3.1-0.9,4.8-0.9c2,0,3.8,0.3,5.2,1c1.5,0.7,2.7,1.5,3.7,2.6l-4.1,4.4
			c-0.5-0.6-1.1-1.1-1.8-1.5c-0.7-0.4-1.7-0.7-2.9-0.7c-0.8,0-1.6,0.2-2.2,0.5c-0.6,0.3-1.2,0.8-1.7,1.3c-0.5,0.5-0.8,1.2-1,1.9
			c-0.2,0.7-0.4,1.5-0.4,2.2c0,0.7,0.1,1.4,0.4,2.1c0.2,0.7,0.6,1.3,1,1.9c0.5,0.6,1,1,1.7,1.3c0.6,0.3,1.4,0.5,2.2,0.5
			c1.2,0,2.1-0.2,2.9-0.7c0.8-0.5,1.4-1,1.9-1.5L114,54.9z"/>
		<path fill="none" stroke="#FFFFFF" stroke-miterlimit="10" d="M117.1,26.3h6.8v16.3l6.8-7h7.7l-7.9,8.2l9,14h-7.9l-5.7-9.4l-2,2
			v7.3h-6.8V26.3z"/>
		<path fill="none" stroke="#FFFFFF" stroke-miterlimit="10" d="M161.8,55.4c-0.3,0.2-0.6,0.4-1.1,0.8c-0.5,0.4-1.2,0.7-2,1.1
			c-0.8,0.3-1.8,0.7-2.9,0.9c-1.1,0.3-2.4,0.4-3.8,0.4c-1.9,0-3.6-0.3-5.1-0.9c-1.5-0.6-2.8-1.4-3.8-2.4c-1.1-1-1.9-2.3-2.4-3.8
			c-0.6-1.5-0.8-3.1-0.8-4.8c0-1.5,0.3-3,0.8-4.5c0.5-1.4,1.3-2.7,2.2-3.8c1-1.1,2.2-1.9,3.6-2.6c1.4-0.6,3-1,4.8-1
			c1.8,0,3.4,0.3,4.7,0.9c1.4,0.6,2.5,1.5,3.4,2.6c0.9,1.1,1.6,2.5,2.1,4c0.5,1.6,0.7,3.3,0.7,5.1v1.1h-15.8c0,1.2,0.6,2.2,1.6,3.1
			c1,0.9,2.4,1.3,4.2,1.3c1.8,0,3.2-0.3,4.3-0.8c1.1-0.5,1.9-1,2.4-1.3L161.8,55.4z M155.8,44.4c0-0.5-0.1-1-0.3-1.4
			c-0.2-0.5-0.5-0.9-0.8-1.3c-0.4-0.4-0.9-0.7-1.4-1c-0.6-0.3-1.2-0.4-2-0.4c-0.8,0-1.5,0.1-2.1,0.4c-0.6,0.3-1.1,0.6-1.5,1
			c-0.4,0.4-0.7,0.9-0.9,1.3c-0.2,0.5-0.3,1-0.3,1.4H155.8z"/>
		<path fill="none" stroke="#FFFFFF" stroke-miterlimit="10" d="M167.8,41h-3.5v-5.3h3.5V29h6.8v6.7h5.7V41h-5.7v8.7
			c0,1.1,0.2,1.9,0.6,2.5c0.4,0.6,1.1,0.9,2,0.9c0.7,0,1.3-0.1,1.8-0.4c0.5-0.2,1-0.5,1.4-0.8l2.7,4.2c-2.1,1.7-4.5,2.6-7,2.6
			c-1.6,0-2.9-0.2-4-0.7c-1.1-0.5-1.9-1.1-2.6-1.9c-0.7-0.8-1.1-1.8-1.4-2.9c-0.3-1.1-0.4-2.4-0.4-3.8V41z"/>
	</g>
	<path display="inline" fill="#FFFFFF" d="M85.7,88.4L85.7,88.4c-1.7,0-3.1-1.4-3.1-3.1V74.5c0-1.7,1.4-3.1,3.1-3.1h0
		c1.7,0,3.1,1.4,3.1,3.1v10.8C88.7,87.1,87.4,88.4,85.7,88.4z"/>
	<path display="inline" fill="#FFFFFF" d="M126.7,88.4L126.7,88.4c-1.7,0-3.1-1.4-3.1-3.1V74.5c0-1.7,1.4-3.1,3.1-3.1h0
		c1.7,0,3.1,1.4,3.1,3.1v10.8C129.7,87.1,128.3,88.4,126.7,88.4z"/>
	<rect x="89.7" y="102.2" display="inline" fill="#FFFFFF" width="13.1" height="13.1"/>
	<rect x="108.9" y="102.2" display="inline" fill="#FFFFFF" width="13.1" height="13.1"/>
	<rect x="128.5" y="102.2" display="inline" fill="#FFFFFF" width="13.1" height="13.1"/>
	<rect x="69.5" y="120.5" display="inline" fill="#FFFFFF" width="13.1" height="13.1"/>
	<rect x="89.7" y="120.5" display="inline" fill="#FFFFFF" width="13.1" height="13.1"/>
	<rect x="89.7" y="139.4" display="inline" fill="#FFFFFF" width="13.1" height="13.1"/>
	<rect x="69.5" y="139.4" display="inline" fill="#FFFFFF" width="13.1" height="13.1"/>
	<rect x="69.5" y="102.2" display="inline" fill="none" stroke="#FFFFFF" stroke-miterlimit="10" width="13.1" height="13.1"/>
	<circle display="inline" fill="none" stroke="#FFFFFF" stroke-width="5" stroke-miterlimit="10" cx="137.8" cy="148.5" r="24.7"/>
	<path display="inline" fill="#FFFFFF" d="M137.2,153L119,139.5v10.3l17.3,14.1c0.6,0.5,1.4,0.4,1.9-0.2l17.6-22.9l-6.2-5.4
		L137.2,153z"/>
	<path display="inline" fill="#FFFFFF" d="M148.8,80.8h-16.4v5.4c0,2.8-2.3,5-5,5h-1.5c-2.8,0-5-2.3-5-5v-5.4H91.1v5.4
		c0,2.8-2.3,5-5,5h-1.5c-2.8,0-5-2.3-5-5v-5.4H62.7c-2,0-3.6,1.6-3.6,3.6v74c0,2,1.6,3.6,3.6,3.6h43.2v-5.3H65.4V96.6h81.1v20.3h5.8
		V84.4C152.4,82.4,150.8,80.8,148.8,80.8z"/>
</g>
<g id="Layer_6_copy">
	<path fill="#A4CE52" d="M216.3,28.5V8.3H6.6v40.6l0,92.6c0,5,2.7,9.7,7,12.2l90.8,52.4c4.4,2.5,9.7,2.5,14.1,0l90.8-52.4
		c4.4-2.5,7-7.2,7-12.2L216.3,28.5L216.3,28.5z"/>
	<g>
		<g>
			<polyline fill="none" stroke="#FFFFFF" stroke-width="0.75" stroke-miterlimit="10" points="210.6,33.9 210.6,32.9 210.5,32.9 
				210.5,31.9 			"/>
			
				<line fill="none" stroke="#FFFFFF" stroke-width="0.75" stroke-miterlimit="10" stroke-dasharray="1.9015,1.9015" x1="210.5" y1="30" x2="210.5" y2="15.7"/>
			<polyline fill="none" stroke="#FFFFFF" stroke-width="0.75" stroke-miterlimit="10" points="210.5,14.7 210.5,13.7 209.5,13.7 
							"/>
			
				<line fill="none" stroke="#FFFFFF" stroke-width="0.75" stroke-miterlimit="10" stroke-dasharray="1.9818,1.9818" x1="207.6" y1="13.7" x2="14.3" y2="13.7"/>
			<polyline fill="none" stroke="#FFFFFF" stroke-width="0.75" stroke-miterlimit="10" points="13.3,13.7 12.3,13.7 12.3,14.7 			
				"/>
			<path fill="none" stroke="#FFFFFF" stroke-width="0.75" stroke-miterlimit="10" stroke-dasharray="2.0022,2.0022" d="M12.3,16.8
				v35.3l0,87.5c0,4.8,2.5,9.1,6.7,11.5l85.8,49.5c4.1,2.4,9.2,2.4,13.3,0l85.8-49.5c4.1-2.4,6.7-6.8,6.7-11.5l0-104.8"/>
		</g>
	</g>
	<path fill="none" stroke="#FFFFFF" stroke-width="0.75" stroke-miterlimit="10" stroke-dasharray="2" d="M12.3,46.8
		c0,0,2.8-9,15.4,0s15.4,8.7,19.3,5.2"/>
	<path fill="none" stroke="#FFFFFF" stroke-width="0.75" stroke-miterlimit="10" stroke-dasharray="2" d="M183.2,56.2
		c0,0,2.2-6.7,12.1,0s12.1,6.5,15.2,3.9"/>
	<g>
		<path fill="none" stroke="#FFFFFF" stroke-miterlimit="10" d="M40.3,35.7h6.5c0.1,0.4,0.1,0.8,0.1,1.2s0.1,0.8,0.1,1.2
			c0.7-0.9,1.7-1.6,2.8-2.1c1.1-0.5,2.3-0.7,3.5-0.7c1.6,0,3,0.3,4.3,0.9c1.2,0.6,2.3,1.5,3.1,2.5c0.8,1.1,1.4,2.3,1.8,3.6
			s0.6,2.8,0.6,4.2c0,2-0.3,3.8-1,5.3c-0.7,1.5-1.6,2.8-2.7,3.7c-1.1,1-2.3,1.7-3.7,2.2c-1.4,0.5-2.8,0.7-4.1,0.7
			c-1.1,0-2-0.1-2.6-0.3c-0.7-0.2-1.3-0.4-1.9-0.6v9.6h-6.8V35.7z M47.1,52c0.9,0.6,2.2,0.9,3.9,0.9c1.7,0,3-0.6,3.9-1.7
			c1-1.1,1.4-2.6,1.4-4.5c0-0.7-0.1-1.4-0.3-2.1c-0.2-0.7-0.4-1.3-0.8-1.8c-0.4-0.5-0.8-0.9-1.4-1.3c-0.6-0.3-1.3-0.5-2.1-0.5
			c-0.8,0-1.4,0.1-2,0.4c-0.6,0.3-1.1,0.7-1.5,1.1c-0.4,0.5-0.7,1-0.9,1.6c-0.2,0.6-0.3,1.2-0.3,1.8V52z"/>
		<path fill="none" stroke="#FFFFFF" stroke-miterlimit="10" d="M66.2,46.7c0-1.6,0.3-3.2,0.9-4.6c0.6-1.4,1.4-2.7,2.4-3.8
			c1-1.1,2.3-1.9,3.8-2.5c1.5-0.6,3.1-0.9,4.8-0.9c1.8,0,3.4,0.3,4.8,0.9c1.4,0.6,2.7,1.5,3.7,2.5c1,1.1,1.8,2.3,2.4,3.8
			c0.6,1.4,0.9,3,0.9,4.6c0,1.6-0.3,3.2-0.9,4.6c-0.6,1.4-1.4,2.7-2.4,3.8c-1,1.1-2.3,1.9-3.7,2.6c-1.4,0.6-3.1,0.9-4.8,0.9
			c-1.8,0-3.4-0.3-4.8-0.9c-1.5-0.6-2.7-1.5-3.8-2.6c-1-1.1-1.9-2.3-2.4-3.8C66.5,49.9,66.2,48.4,66.2,46.7z M78.1,52.7
			c0.9,0,1.6-0.2,2.3-0.5c0.7-0.3,1.2-0.8,1.7-1.3c0.5-0.6,0.8-1.2,1-1.9c0.2-0.7,0.3-1.4,0.3-2.2s-0.1-1.5-0.3-2.2
			c-0.2-0.7-0.6-1.3-1-1.9c-0.5-0.5-1-1-1.7-1.3c-0.7-0.3-1.4-0.5-2.3-0.5s-1.6,0.2-2.3,0.5c-0.7,0.3-1.2,0.8-1.7,1.3
			c-0.4,0.6-0.8,1.2-1,1.9c-0.2,0.7-0.4,1.4-0.4,2.2s0.1,1.5,0.4,2.2c0.2,0.7,0.6,1.3,1,1.9c0.4,0.6,1,1,1.7,1.3
			C76.5,52.5,77.3,52.7,78.1,52.7z"/>
		<path fill="none" stroke="#FFFFFF" stroke-miterlimit="10" d="M114,54.9c-0.9,1-2.1,1.9-3.6,2.6s-3.3,1.1-5.3,1.1
			c-1.8,0-3.4-0.3-4.9-0.9c-1.5-0.6-2.7-1.4-3.8-2.5c-1-1.1-1.9-2.3-2.4-3.8c-0.6-1.4-0.9-3-0.9-4.8c0-1.6,0.3-3.2,0.9-4.6
			c0.6-1.4,1.4-2.7,2.5-3.8c1.1-1.1,2.3-1.9,3.8-2.5c1.5-0.6,3.1-0.9,4.8-0.9c2,0,3.8,0.3,5.2,1c1.5,0.7,2.7,1.5,3.7,2.6l-4.1,4.4
			c-0.5-0.6-1.1-1.1-1.8-1.5c-0.7-0.4-1.7-0.7-2.9-0.7c-0.8,0-1.6,0.2-2.2,0.5c-0.6,0.3-1.2,0.8-1.7,1.3c-0.5,0.5-0.8,1.2-1,1.9
			c-0.2,0.7-0.4,1.5-0.4,2.2c0,0.7,0.1,1.4,0.4,2.1c0.2,0.7,0.6,1.3,1,1.9c0.5,0.6,1,1,1.7,1.3c0.6,0.3,1.4,0.5,2.2,0.5
			c1.2,0,2.1-0.2,2.9-0.7c0.8-0.5,1.4-1,1.9-1.5L114,54.9z"/>
		<path fill="none" stroke="#FFFFFF" stroke-miterlimit="10" d="M117.1,26.3h6.8v16.3l6.8-7h7.7l-7.9,8.2l9,14h-7.9l-5.7-9.4l-2,2
			v7.3h-6.8V26.3z"/>
		<path fill="none" stroke="#FFFFFF" stroke-miterlimit="10" d="M161.8,55.4c-0.3,0.2-0.6,0.4-1.1,0.8c-0.5,0.4-1.2,0.7-2,1.1
			c-0.8,0.3-1.8,0.7-2.9,0.9c-1.1,0.3-2.4,0.4-3.8,0.4c-1.9,0-3.6-0.3-5.1-0.9c-1.5-0.6-2.8-1.4-3.8-2.4c-1.1-1-1.9-2.3-2.4-3.8
			c-0.6-1.5-0.8-3.1-0.8-4.8c0-1.5,0.3-3,0.8-4.5c0.5-1.4,1.3-2.7,2.2-3.8c1-1.1,2.2-1.9,3.6-2.6c1.4-0.6,3-1,4.8-1
			c1.8,0,3.4,0.3,4.7,0.9c1.4,0.6,2.5,1.5,3.4,2.6c0.9,1.1,1.6,2.5,2.1,4c0.5,1.6,0.7,3.3,0.7,5.1v1.1h-15.8c0,1.2,0.6,2.2,1.6,3.1
			c1,0.9,2.4,1.3,4.2,1.3c1.8,0,3.2-0.3,4.3-0.8c1.1-0.5,1.9-1,2.4-1.3L161.8,55.4z M155.8,44.4c0-0.5-0.1-1-0.3-1.4
			c-0.2-0.5-0.5-0.9-0.8-1.3c-0.4-0.4-0.9-0.7-1.4-1c-0.6-0.3-1.2-0.4-2-0.4c-0.8,0-1.5,0.1-2.1,0.4c-0.6,0.3-1.1,0.6-1.5,1
			c-0.4,0.4-0.7,0.9-0.9,1.3c-0.2,0.5-0.3,1-0.3,1.4H155.8z"/>
		<path fill="none" stroke="#FFFFFF" stroke-miterlimit="10" d="M167.8,41h-3.5v-5.3h3.5V29h6.8v6.7h5.7V41h-5.7v8.7
			c0,1.1,0.2,1.9,0.6,2.5c0.4,0.6,1.1,0.9,2,0.9c0.7,0,1.3-0.1,1.8-0.4c0.5-0.2,1-0.5,1.4-0.8l2.7,4.2c-2.1,1.7-4.5,2.6-7,2.6
			c-1.6,0-2.9-0.2-4-0.7c-1.1-0.5-1.9-1.1-2.6-1.9c-0.7-0.8-1.1-1.8-1.4-2.9c-0.3-1.1-0.4-2.4-0.4-3.8V41z"/>
	</g>
</g>
<g id="Layer_1">
	<g>
		<path fill="#1B2947" d="M120.6,147.8c-22.2,0-40.3-16.5-40.3-36.9c0-3.9,0.7-7.7,1.9-11.2c-8.3,2.9-14.8,8.8-17.4,16.8
			c-2.5,7.7-1,15.9,3.4,23c-2.2,7.8-6.2,18.3-13,21.7c0,0,15.2-6.3,22.8-11.4c3.4,2.4,7.3,4.5,11.6,5.9c15.1,5,30.5,1.1,38.6-8.6
			C125.8,147.6,123.2,147.8,120.6,147.8z"/>
		<path fill="#1B2947" d="M154.7,135.1c7.6-6.3,12.3-15,12.3-24.5c0-19.2-18.9-34.8-42.2-34.8s-42.2,15.6-42.2,34.8
			s18.9,34.8,42.2,34.8c5.3,0,10.4-0.8,15.1-2.3c6.6,8.6,21.3,21.2,21.3,21.2C154.9,157.9,154.2,144.6,154.7,135.1z M145.6,105
			c3.1,0,5.6,2.5,5.6,5.6c0,3.1-2.5,5.6-5.6,5.6s-5.6-2.5-5.6-5.6C140.1,107.5,142.6,105,145.6,105z M103.2,116.1
			c-3.1,0-5.6-2.5-5.6-5.6c0-3.1,2.5-5.6,5.6-5.6s5.6,2.5,5.6,5.6C108.8,113.6,106.3,116.1,103.2,116.1z M124.8,116.1
			c-3.1,0-5.6-2.5-5.6-5.6c0-3.1,2.5-5.6,5.6-5.6c3.1,0,5.6,2.5,5.6,5.6C130.4,113.6,127.9,116.1,124.8,116.1z"/>
	</g>
</g>
<g id="Layer_7">
</g>
</svg>
