<?xml version="1.0" encoding="utf-8"?>
<!-- Generator: Adobe Illustrator 18.0.0, SVG Export Plug-In . SVG Version: 6.00 Build 0)  -->
<!DOCTYPE svg PUBLIC "-//W3C//DTD SVG 1.1//EN" "http://www.w3.org/Graphics/SVG/1.1/DTD/svg11.dtd">
<svg version="1.1" xmlns="http://www.w3.org/2000/svg" xmlns:xlink="http://www.w3.org/1999/xlink" x="0px" y="0px"
	 viewBox="0 0 139.5 130.5" enable-background="new 0 0 139.5 130.5" xml:space="preserve">
<g id="Layer_1">
	<g>
		<path fill="#8DC641" d="M124.5,22.1V11.2H11.4v21.9l0,49.9c0,2.7,1.4,5.2,3.8,6.6l49,28.3c2.4,1.4,5.2,1.4,7.6,0l49-28.3
			c2.4-1.4,3.8-3.9,3.8-6.6L124.5,22.1L124.5,22.1z"/>
		<g>
			<g>
				<polyline fill="none" stroke="#FFFFFF" stroke-miterlimit="10" points="121.4,25.5 121.4,24.5 121.4,24.5 121.4,23.5 				"/>
				
					<line fill="none" stroke="#FFFFFF" stroke-miterlimit="10" stroke-dasharray="1.6623,1.6623" x1="121.4" y1="21.8" x2="121.4" y2="16"/>
				<polyline fill="none" stroke="#FFFFFF" stroke-miterlimit="10" points="121.4,15.2 121.4,14.2 120.4,14.2 				"/>
				
					<line fill="none" stroke="#FFFFFF" stroke-miterlimit="10" stroke-dasharray="1.9798,1.9798" x1="118.5" y1="14.2" x2="16.5" y2="14.2"/>
				<polyline fill="none" stroke="#FFFFFF" stroke-miterlimit="10" points="15.5,14.2 14.5,14.2 14.5,15.2 				"/>
				<path fill="none" stroke="#FFFFFF" stroke-miterlimit="10" stroke-dasharray="1.9915,1.9915" d="M14.5,17.2v17.7l0,47.2
					c0,2.6,1.4,4.9,3.6,6.2L64.4,115c2.2,1.3,5,1.3,7.2,0l46.3-26.7c2.2-1.3,3.6-3.7,3.6-6.2l0-55.6"/>
			</g>
		</g>
	</g>
	<line fill="none" stroke="#FFFFFF" stroke-width="6" stroke-miterlimit="10" x1="33.6" y1="36.9" x2="101.4" y2="36.9"/>
	<line fill="none" stroke="#FFFFFF" stroke-width="6" stroke-miterlimit="10" x1="33.6" y1="79.6" x2="101.4" y2="79.6"/>
	<line fill="none" stroke="#FFFFFF" stroke-width="6" stroke-miterlimit="10" x1="33.6" y1="57.6" x2="101.4" y2="57.6"/>
</g>
<g id="Layer_2" display="none">
	<g display="inline">
		<path fill="#F58B20" d="M86.1-135.6h9.3c0.1,0.6,0.2,1.2,0.2,1.7c0,0.6,0.1,1.1,0.1,1.7c1-1.3,2.4-2.3,4-3c1.6-0.7,3.3-1,5.1-1
			c2.3,0,4.3,0.5,6.1,1.3c1.8,0.9,3.2,2.1,4.4,3.6c1.2,1.5,2,3.2,2.6,5.2c0.6,2,0.9,4,0.9,6c0,2.9-0.5,5.5-1.5,7.6
			c-1,2.2-2.3,3.9-3.8,5.3c-1.6,1.4-3.4,2.4-5.3,3.1c-2,0.7-3.9,1-5.9,1c-1.5,0-2.8-0.1-3.8-0.4c-1-0.3-1.9-0.5-2.7-0.8v13.7h-9.7
			V-135.6z M95.8-112.3c1.3,0.9,3.1,1.3,5.6,1.3c2.4,0,4.3-0.8,5.6-2.4c1.4-1.6,2.1-3.7,2.1-6.4c0-1-0.1-2-0.4-3
			c-0.2-1-0.6-1.9-1.1-2.6c-0.5-0.7-1.2-1.3-2-1.8c-0.8-0.4-1.9-0.7-3.1-0.7c-1.1,0-2,0.2-2.9,0.6c-0.8,0.4-1.5,0.9-2.1,1.6
			c-0.6,0.7-1,1.4-1.3,2.3c-0.3,0.9-0.4,1.7-0.4,2.6V-112.3z"/>
		<path fill="#F58B20" d="M123.2-119.8c0-2.3,0.4-4.5,1.2-6.6c0.8-2,2-3.8,3.5-5.4c1.5-1.5,3.3-2.7,5.4-3.6c2.1-0.9,4.4-1.3,6.9-1.3
			c2.5,0,4.8,0.4,6.9,1.3c2.1,0.9,3.8,2.1,5.3,3.6c1.5,1.5,2.6,3.3,3.5,5.4c0.8,2,1.2,4.2,1.2,6.6c0,2.3-0.4,4.5-1.2,6.6
			c-0.8,2-2,3.8-3.5,5.4c-1.5,1.5-3.3,2.7-5.3,3.6c-2.1,0.9-4.4,1.4-6.9,1.4c-2.5,0-4.8-0.5-6.9-1.4c-2.1-0.9-3.9-2.1-5.4-3.6
			c-1.5-1.5-2.6-3.3-3.5-5.4C123.6-115.3,123.2-117.5,123.2-119.8z M140.2-111.3c1.2,0,2.3-0.2,3.2-0.7s1.7-1.1,2.4-1.9
			c0.7-0.8,1.1-1.7,1.5-2.7c0.3-1,0.5-2.1,0.5-3.1c0-1.1-0.2-2.1-0.5-3.1c-0.3-1-0.8-1.9-1.5-2.7c-0.7-0.8-1.5-1.4-2.4-1.9
			c-0.9-0.5-2-0.7-3.2-0.7c-1.2,0-2.3,0.2-3.3,0.7c-1,0.5-1.8,1.1-2.4,1.9c-0.6,0.8-1.1,1.7-1.5,2.7c-0.3,1-0.5,2.1-0.5,3.1
			c0,1.1,0.2,2.1,0.5,3.1c0.3,1,0.8,1.9,1.5,2.7c0.6,0.8,1.4,1.5,2.4,1.9C137.9-111.5,139-111.3,140.2-111.3z"/>
		<path fill="#F58B20" d="M191.4-108.1c-1.3,1.4-3,2.7-5.2,3.7c-2.1,1-4.7,1.6-7.6,1.6c-2.6,0-4.9-0.4-7-1.2c-2.1-0.8-3.9-2-5.4-3.5
			c-1.5-1.5-2.6-3.3-3.5-5.4c-0.8-2.1-1.2-4.3-1.2-6.8c0-2.3,0.4-4.5,1.3-6.6c0.9-2,2-3.8,3.5-5.4c1.5-1.5,3.3-2.7,5.4-3.6
			c2.1-0.9,4.4-1.3,6.9-1.3c2.9,0,5.4,0.5,7.5,1.4c2.1,0.9,3.9,2.2,5.3,3.8l-5.9,6.3c-0.7-0.8-1.6-1.5-2.6-2.2
			c-1-0.6-2.4-0.9-4.1-0.9c-1.2,0-2.2,0.2-3.1,0.7c-0.9,0.5-1.7,1.1-2.4,1.9c-0.7,0.8-1.1,1.7-1.5,2.7c-0.3,1-0.5,2.1-0.5,3.2
			c0,1,0.2,2.1,0.5,3.1c0.3,1,0.8,1.9,1.5,2.7c0.7,0.8,1.4,1.4,2.4,1.9c0.9,0.5,2,0.7,3.1,0.7c1.7,0,3.1-0.3,4.2-1
			c1.1-0.7,2-1.4,2.7-2.1L191.4-108.1z"/>
		<path fill="#F58B20" d="M195.8-149h9.7v23.4l9.7-10h11l-11.3,11.7l12.9,20h-11.3l-8.1-13.4l-2.8,2.9v10.5h-9.7V-149z"/>
		<path fill="#F58B20" d="M259.7-107.4c-0.4,0.2-0.9,0.6-1.6,1.1c-0.7,0.5-1.7,1-2.8,1.5c-1.1,0.5-2.5,0.9-4.1,1.3
			c-1.6,0.4-3.4,0.6-5.4,0.6c-2.7,0-5.1-0.4-7.3-1.2c-2.2-0.8-4-2-5.5-3.5c-1.5-1.5-2.7-3.3-3.4-5.4c-0.8-2.1-1.2-4.4-1.2-6.9
			c0-2.2,0.4-4.3,1.1-6.4c0.7-2,1.8-3.8,3.2-5.4c1.4-1.5,3.1-2.8,5.1-3.7c2-0.9,4.3-1.4,6.9-1.4s4.8,0.5,6.7,1.4
			c1.9,0.9,3.6,2.1,4.9,3.7c1.3,1.6,2.3,3.5,3,5.7c0.7,2.2,1,4.7,1,7.3v1.6h-22.5c0,1.7,0.8,3.2,2.3,4.5c1.5,1.3,3.5,1.9,6,1.9
			c2.5,0,4.6-0.4,6.1-1.1c1.6-0.7,2.7-1.4,3.4-1.9L259.7-107.4z M251.2-123.1c0-0.7-0.1-1.4-0.4-2.1c-0.3-0.7-0.7-1.3-1.2-1.9
			c-0.5-0.6-1.2-1.1-2-1.5c-0.8-0.4-1.8-0.6-2.9-0.6c-1.1,0-2.1,0.2-3,0.6c-0.9,0.4-1.6,0.9-2.1,1.5c-0.6,0.6-1,1.2-1.3,1.9
			c-0.3,0.7-0.4,1.4-0.4,2.1H251.2z"/>
		<path fill="#F58B20" d="M268.3-128h-5v-7.6h5v-9.6h9.7v9.6h8.2v7.6H278v12.5c0,1.5,0.3,2.7,0.9,3.5c0.6,0.8,1.6,1.2,2.9,1.2
			c1,0,1.8-0.2,2.6-0.5c0.7-0.3,1.4-0.7,2-1.2l3.9,5.9c-3.1,2.4-6.4,3.6-10,3.6c-2.3,0-4.1-0.3-5.7-1c-1.5-0.7-2.8-1.6-3.7-2.7
			c-0.9-1.1-1.6-2.5-2-4.2c-0.4-1.6-0.6-3.4-0.6-5.4V-128z"/>
		<path fill="#8DC641" d="M298.3-117.4c0.6,0.6,1.3,1.3,2.1,1.9c0.8,0.7,1.7,1.2,2.6,1.8c1,0.5,2,1,3.2,1.3c1.1,0.3,2.4,0.5,3.7,0.5
			c0.8,0,1.5-0.1,2.3-0.3c0.8-0.2,1.5-0.6,2.1-1c0.6-0.4,1.1-0.9,1.5-1.6c0.4-0.6,0.6-1.3,0.6-2.1c0-1.7-0.8-3-2.4-3.9
			c-1.6-0.9-4.2-1.8-7.7-2.7c-1.7-0.4-3.3-1-4.8-1.8c-1.5-0.8-2.7-1.7-3.8-2.8c-1.1-1.1-1.9-2.3-2.5-3.7c-0.6-1.4-0.9-2.9-0.9-4.7
			c0-1.9,0.3-3.7,1-5.3c0.7-1.7,1.7-3.1,3.1-4.4c1.4-1.3,3.1-2.3,5.1-3c2-0.7,4.5-1.1,7.3-1.1c2.3,0,4.3,0.2,6.1,0.7
			c1.8,0.5,3.3,1,4.5,1.7c1.2,0.7,2.3,1.3,3,2c0.8,0.7,1.4,1.2,1.8,1.7l-5.9,6.5c-0.5-0.4-1.1-0.8-1.7-1.3c-0.7-0.5-1.4-0.9-2.2-1.3
			c-0.8-0.4-1.7-0.7-2.7-1c-1-0.3-2-0.4-3.1-0.4c-0.7,0-1.4,0.1-2.1,0.3c-0.7,0.2-1.3,0.5-1.9,0.9c-0.6,0.4-1,0.8-1.3,1.3
			c-0.3,0.5-0.5,1.1-0.5,1.7c0,1.5,0.8,2.8,2.4,3.7c1.6,0.9,3.8,1.7,6.7,2.4c1.7,0.4,3.3,1,4.9,1.7c1.6,0.7,3,1.6,4.3,2.7
			c1.3,1.1,2.3,2.5,3,4.2c0.8,1.6,1.1,3.6,1.1,6c0,2-0.5,3.9-1.3,5.6c-0.9,1.7-2.1,3.2-3.7,4.5c-1.6,1.3-3.4,2.2-5.5,2.9
			c-2.1,0.7-4.4,1-6.8,1c-2.3,0-4.3-0.2-6.1-0.6c-1.8-0.4-3.5-1-5-1.7c-1.5-0.7-2.8-1.5-4-2.4c-1.2-0.9-2.2-1.8-3.1-2.8L298.3-117.4
			z"/>
		<path fill="#8DC641" d="M356.6-102.8c-3.3,0-6.4-0.6-9.3-1.8c-2.9-1.2-5.3-2.9-7.4-5c-2.1-2.1-3.7-4.6-4.9-7.5
			c-1.2-2.9-1.8-6-1.8-9.3c0-3.4,0.6-6.5,1.8-9.4c1.2-2.9,2.8-5.4,4.9-7.5c2.1-2.1,4.6-3.8,7.4-5c2.9-1.2,6-1.8,9.3-1.8
			c3.3,0,6.4,0.6,9.3,1.8c2.9,1.2,5.3,2.9,7.4,5c2.1,2.1,3.7,4.6,4.9,7.5c1.2,2.9,1.8,6,1.8,9.4c0,3.3-0.6,6.4-1.8,9.3
			c-1.2,2.9-2.8,5.4-4.9,7.5c-2.1,2.1-4.6,3.8-7.4,5C363-103.4,359.9-102.8,356.6-102.8z M356.6-112.4c2,0,3.8-0.4,5.3-1.1
			c1.6-0.8,2.9-1.8,4-3.1c1.1-1.3,1.9-2.8,2.5-4.5c0.6-1.7,0.9-3.5,0.9-5.5c0-1.9-0.3-3.8-0.9-5.5c-0.6-1.7-1.4-3.2-2.5-4.5
			c-1.1-1.3-2.4-2.3-4-3c-1.6-0.7-3.4-1.1-5.3-1.1c-2,0-3.8,0.4-5.4,1.1c-1.6,0.7-2.9,1.8-4,3c-1.1,1.3-1.9,2.8-2.5,4.5
			c-0.6,1.7-0.9,3.5-0.9,5.5c0,1.9,0.3,3.8,0.9,5.5c0.6,1.7,1.4,3.2,2.5,4.5c1.1,1.3,2.5,2.3,4,3.1
			C352.8-112.8,354.6-112.4,356.6-112.4z"/>
		<path fill="#8DC641" d="M387.1-149h10.2v17.3h19.5V-149H427v45h-10.2v-18.5h-19.5v18.5h-10.2V-149z"/>
		<path fill="#8DC641" d="M457.4-102.8c-3.3,0-6.4-0.6-9.3-1.8c-2.9-1.2-5.3-2.9-7.4-5c-2.1-2.1-3.7-4.6-4.9-7.5
			c-1.2-2.9-1.8-6-1.8-9.3c0-3.4,0.6-6.5,1.8-9.4c1.2-2.9,2.8-5.4,4.9-7.5c2.1-2.1,4.6-3.8,7.4-5c2.9-1.2,6-1.8,9.3-1.8
			c3.3,0,6.4,0.6,9.3,1.8c2.9,1.2,5.3,2.9,7.4,5c2.1,2.1,3.7,4.6,4.9,7.5c1.2,2.9,1.8,6,1.8,9.4c0,3.3-0.6,6.4-1.8,9.3
			c-1.2,2.9-2.8,5.4-4.9,7.5c-2.1,2.1-4.6,3.8-7.4,5C463.8-103.4,460.7-102.8,457.4-102.8z M457.4-112.4c2,0,3.8-0.4,5.3-1.1
			c1.6-0.8,2.9-1.8,4-3.1c1.1-1.3,1.9-2.8,2.5-4.5c0.6-1.7,0.9-3.5,0.9-5.5c0-1.9-0.3-3.8-0.9-5.5c-0.6-1.7-1.4-3.2-2.5-4.5
			c-1.1-1.3-2.4-2.3-4-3c-1.6-0.7-3.4-1.1-5.3-1.1c-2,0-3.8,0.4-5.4,1.1c-1.6,0.7-2.9,1.8-4,3c-1.1,1.3-1.9,2.8-2.5,4.5
			c-0.6,1.7-0.9,3.5-0.9,5.5c0,1.9,0.3,3.8,0.9,5.5c0.6,1.7,1.4,3.2,2.5,4.5c1.1,1.3,2.5,2.3,4,3.1
			C453.6-112.8,455.4-112.4,457.4-112.4z"/>
	</g>
</g>
</svg>
