<?xml version="1.0" encoding="utf-8"?>
<!-- Generator: Adobe Illustrator 18.1.0, SVG Export Plug-In . SVG Version: 6.00 Build 0)  -->
<svg version="1.1" id="Layer_6_copy_2" xmlns="http://www.w3.org/2000/svg" xmlns:xlink="http://www.w3.org/1999/xlink" x="0px"
	 y="0px" viewBox="0 0 225 216" enable-background="new 0 0 225 216" xml:space="preserve">
<path fill="#1B2947" d="M216.3,28.5V8.3H6.6v40.6l0,92.6c0,5,2.7,9.7,7,12.2l90.8,52.4c4.4,2.5,9.7,2.5,14.1,0l90.8-52.4
	c4.4-2.5,7-7.2,7-12.2L216.3,28.5L216.3,28.5z"/>
<g>
	<g>
		<polyline fill="none" stroke="#FFFFFF" stroke-width="0.75" stroke-miterlimit="10" points="210.6,33.9 210.6,32.9 210.5,32.9 
			210.5,31.9 		"/>
		
			<line fill="none" stroke="#FFFFFF" stroke-width="0.75" stroke-miterlimit="10" stroke-dasharray="1.9015,1.9015" x1="210.5" y1="30" x2="210.5" y2="15.7"/>
		<polyline fill="none" stroke="#FFFFFF" stroke-width="0.75" stroke-miterlimit="10" points="210.5,14.7 210.5,13.7 209.5,13.7 		
			"/>
		
			<line fill="none" stroke="#FFFFFF" stroke-width="0.75" stroke-miterlimit="10" stroke-dasharray="1.9818,1.9818" x1="207.6" y1="13.7" x2="14.3" y2="13.7"/>
		<polyline fill="none" stroke="#FFFFFF" stroke-width="0.75" stroke-miterlimit="10" points="13.3,13.7 12.3,13.7 12.3,14.7 		"/>
		<path fill="none" stroke="#FFFFFF" stroke-width="0.75" stroke-miterlimit="10" stroke-dasharray="2.0022,2.0022" d="M12.3,16.8
			v35.3l0,87.5c0,4.8,2.5,9.1,6.7,11.5l85.8,49.5c4.1,2.4,9.2,2.4,13.3,0l85.8-49.5c4.1-2.4,6.7-6.8,6.7-11.5l0-104.8"/>
	</g>
</g>
<path fill="none" stroke="#FFFFFF" stroke-width="0.75" stroke-miterlimit="10" stroke-dasharray="2" d="M12.3,46.8
	c0,0,2.8-9,15.4,0s15.4,8.7,19.3,5.2"/>
<path fill="none" stroke="#FFFFFF" stroke-width="0.75" stroke-miterlimit="10" stroke-dasharray="2" d="M183.2,56.2
	c0,0,2.2-6.7,12.1,0s12.1,6.5,15.2,3.9"/>
<g>
	<path fill="none" stroke="#FFFFFF" stroke-width="2" stroke-miterlimit="10" d="M40.3,35.7h6.5c0.1,0.4,0.1,0.8,0.1,1.2
		s0.1,0.8,0.1,1.2c0.7-0.9,1.7-1.6,2.8-2.1c1.1-0.5,2.3-0.7,3.5-0.7c1.6,0,3,0.3,4.3,0.9c1.2,0.6,2.3,1.5,3.1,2.5
		c0.8,1.1,1.4,2.3,1.8,3.6s0.6,2.8,0.6,4.2c0,2-0.3,3.8-1,5.3c-0.7,1.5-1.6,2.8-2.7,3.7c-1.1,1-2.3,1.7-3.7,2.2
		c-1.4,0.5-2.8,0.7-4.1,0.7c-1.1,0-2-0.1-2.6-0.3c-0.7-0.2-1.3-0.4-1.9-0.6v9.6h-6.8V35.7z M47.1,52c0.9,0.6,2.2,0.9,3.9,0.9
		c1.7,0,3-0.6,3.9-1.7c1-1.1,1.4-2.6,1.4-4.5c0-0.7-0.1-1.4-0.3-2.1c-0.2-0.7-0.4-1.3-0.8-1.8c-0.4-0.5-0.8-0.9-1.4-1.3
		c-0.6-0.3-1.3-0.5-2.1-0.5c-0.8,0-1.4,0.1-2,0.4c-0.6,0.3-1.1,0.7-1.5,1.1c-0.4,0.5-0.7,1-0.9,1.6c-0.2,0.6-0.3,1.2-0.3,1.8V52z"/>
	<path fill="none" stroke="#FFFFFF" stroke-width="2" stroke-miterlimit="10" d="M66.2,46.7c0-1.6,0.3-3.2,0.9-4.6
		c0.6-1.4,1.4-2.7,2.4-3.8c1-1.1,2.3-1.9,3.8-2.5c1.5-0.6,3.1-0.9,4.8-0.9c1.8,0,3.4,0.3,4.8,0.9c1.4,0.6,2.7,1.5,3.7,2.5
		c1,1.1,1.8,2.3,2.4,3.8c0.6,1.4,0.9,3,0.9,4.6c0,1.6-0.3,3.2-0.9,4.6c-0.6,1.4-1.4,2.7-2.4,3.8c-1,1.1-2.3,1.9-3.7,2.6
		c-1.4,0.6-3.1,0.9-4.8,0.9c-1.8,0-3.4-0.3-4.8-0.9c-1.5-0.6-2.7-1.5-3.8-2.6c-1-1.1-1.9-2.3-2.4-3.8C66.5,49.9,66.2,48.4,66.2,46.7
		z M78.1,52.7c0.9,0,1.6-0.2,2.3-0.5c0.7-0.3,1.2-0.8,1.7-1.3c0.5-0.6,0.8-1.2,1-1.9c0.2-0.7,0.3-1.4,0.3-2.2s-0.1-1.5-0.3-2.2
		c-0.2-0.7-0.6-1.3-1-1.9c-0.5-0.5-1-1-1.7-1.3c-0.7-0.3-1.4-0.5-2.3-0.5s-1.6,0.2-2.3,0.5c-0.7,0.3-1.2,0.8-1.7,1.3
		c-0.4,0.6-0.8,1.2-1,1.9c-0.2,0.7-0.4,1.4-0.4,2.2s0.1,1.5,0.4,2.2c0.2,0.7,0.6,1.3,1,1.9c0.4,0.6,1,1,1.7,1.3
		C76.5,52.5,77.3,52.7,78.1,52.7z"/>
	<path fill="none" stroke="#FFFFFF" stroke-width="2" stroke-miterlimit="10" d="M114,54.9c-0.9,1-2.1,1.9-3.6,2.6s-3.3,1.1-5.3,1.1
		c-1.8,0-3.4-0.3-4.9-0.9c-1.5-0.6-2.7-1.4-3.8-2.5c-1-1.1-1.9-2.3-2.4-3.8c-0.6-1.4-0.9-3-0.9-4.8c0-1.6,0.3-3.2,0.9-4.6
		c0.6-1.4,1.4-2.7,2.5-3.8c1.1-1.1,2.3-1.9,3.8-2.5c1.5-0.6,3.1-0.9,4.8-0.9c2,0,3.8,0.3,5.2,1c1.5,0.7,2.7,1.5,3.7,2.6l-4.1,4.4
		c-0.5-0.6-1.1-1.1-1.8-1.5c-0.7-0.4-1.7-0.7-2.9-0.7c-0.8,0-1.6,0.2-2.2,0.5c-0.6,0.3-1.2,0.8-1.7,1.3c-0.5,0.5-0.8,1.2-1,1.9
		c-0.2,0.7-0.4,1.5-0.4,2.2c0,0.7,0.1,1.4,0.4,2.1c0.2,0.7,0.6,1.3,1,1.9c0.5,0.6,1,1,1.7,1.3c0.6,0.3,1.4,0.5,2.2,0.5
		c1.2,0,2.1-0.2,2.9-0.7c0.8-0.5,1.4-1,1.9-1.5L114,54.9z"/>
	<path fill="none" stroke="#FFFFFF" stroke-width="2" stroke-miterlimit="10" d="M117.1,26.3h6.8v16.3l6.8-7h7.7l-7.9,8.2l9,14h-7.9
		l-5.7-9.4l-2,2v7.3h-6.8V26.3z"/>
	<path fill="none" stroke="#FFFFFF" stroke-width="2" stroke-miterlimit="10" d="M161.8,55.4c-0.3,0.2-0.6,0.4-1.1,0.8
		c-0.5,0.4-1.2,0.7-2,1.1c-0.8,0.3-1.8,0.7-2.9,0.9c-1.1,0.3-2.4,0.4-3.8,0.4c-1.9,0-3.6-0.3-5.1-0.9c-1.5-0.6-2.8-1.4-3.8-2.4
		c-1.1-1-1.9-2.3-2.4-3.8c-0.6-1.5-0.8-3.1-0.8-4.8c0-1.5,0.3-3,0.8-4.5c0.5-1.4,1.3-2.7,2.2-3.8c1-1.1,2.2-1.9,3.6-2.6
		c1.4-0.6,3-1,4.8-1c1.8,0,3.4,0.3,4.7,0.9c1.4,0.6,2.5,1.5,3.4,2.6c0.9,1.1,1.6,2.5,2.1,4c0.5,1.6,0.7,3.3,0.7,5.1v1.1h-15.8
		c0,1.2,0.6,2.2,1.6,3.1c1,0.9,2.4,1.3,4.2,1.3c1.8,0,3.2-0.3,4.3-0.8c1.1-0.5,1.9-1,2.4-1.3L161.8,55.4z M155.8,44.4
		c0-0.5-0.1-1-0.3-1.4c-0.2-0.5-0.5-0.9-0.8-1.3c-0.4-0.4-0.9-0.7-1.4-1c-0.6-0.3-1.2-0.4-2-0.4c-0.8,0-1.5,0.1-2.1,0.4
		c-0.6,0.3-1.1,0.6-1.5,1c-0.4,0.4-0.7,0.9-0.9,1.3c-0.2,0.5-0.3,1-0.3,1.4H155.8z"/>
	<path fill="none" stroke="#FFFFFF" stroke-width="2" stroke-miterlimit="10" d="M167.8,41h-3.5v-5.3h3.5V29h6.8v6.7h5.7V41h-5.7
		v8.7c0,1.1,0.2,1.9,0.6,2.5c0.4,0.6,1.1,0.9,2,0.9c0.7,0,1.3-0.1,1.8-0.4c0.5-0.2,1-0.5,1.4-0.8l2.7,4.2c-2.1,1.7-4.5,2.6-7,2.6
		c-1.6,0-2.9-0.2-4-0.7c-1.1-0.5-1.9-1.1-2.6-1.9c-0.7-0.8-1.1-1.8-1.4-2.9c-0.3-1.1-0.4-2.4-0.4-3.8V41z"/>
</g>
<g>
	<path fill="#FFFFFF" d="M174.3,116.5l-77-41.3c-4.5-2.4-10.2-0.7-12.6,3.8L62.1,121c-2.4,4.5-0.7,10.2,3.8,12.6l77,41.3
		c4.5,2.4,10.2,0.7,12.6-3.8l22.6-42.1C180.5,124.6,178.8,118.9,174.3,116.5z M149.9,169.8c-0.5,0.8-1.5,1.2-2.4,0.7L67,127.4
		c-0.8-0.5-1.2-1.5-0.7-2.4l13.9-25.8l83.1,45.8L149.9,169.8z M173.8,124.2l-2.6,4.8L88.4,83.3l2.1-3.9c0.5-0.8,1.5-1.2,2.4-0.7
		l80.3,43.1C174,122.3,174.3,123.3,173.8,124.2z"/>
	<circle fill="#FFFFFF" cx="148.2" cy="155.4" r="4.6"/>
</g>
<rect x="52.6" y="99.1" transform="matrix(0.9596 0.2813 -0.2813 0.9596 40.5649 -23.1417)" fill="#4D4C49" width="96.6" height="61.2"/>
<path fill="#F8B518" d="M151.9,110.7L68,86.4c-4.9-1.4-10.1,1.4-11.5,6.3l-13.3,45.8c-1.4,4.9,1.4,10.1,6.3,11.5l84,24.3
	c4.9,1.4,10.1-1.4,11.5-6.3l13.3-45.8C159.7,117.3,156.8,112.1,151.9,110.7z M139.2,168c-0.3,0.9-1.2,1.5-2.2,1.2l-87.8-25.4
	c-0.9-0.3-1.5-1.2-1.2-2.2l8.1-28.2l90.8,27.4L139.2,168z M153.1,118.3l-1.5,5.2L61,96.2l1.2-4.2c0.3-0.9,1.2-1.5,2.2-1.2l87.5,25.3
	C152.8,116.4,153.4,117.4,153.1,118.3z"/>
<rect x="59.8" y="142.8" transform="matrix(0.9629 0.2697 -0.2697 0.9629 41.8396 -16.4768)" fill="#FFFFFF" width="42.2" height="2.4"/>
<rect x="59.1" y="137.1" transform="matrix(0.9624 0.2717 -0.2717 0.9624 40.6142 -16.8784)" fill="#FFFFFF" width="44.3" height="2.4"/>
<rect x="57.1" y="131.3" transform="matrix(0.9644 0.2644 -0.2644 0.9644 37.9338 -16.7473)" fill="#FFFFFF" width="48.1" height="2.4"/>
<circle fill="#FFFFFF" cx="128.8" cy="153" r="5.8"/>
<circle fill="#FFFFFF" cx="134.6" cy="154.2" r="4.6"/>
</svg>
