<?xml version="1.0" encoding="utf-8"?>
<!-- Generator: Adobe Illustrator 18.1.0, SVG Export Plug-In . SVG Version: 6.00 Build 0)  -->
<!DOCTYPE svg PUBLIC "-//W3C//DTD SVG 1.1//EN" "http://www.w3.org/Graphics/SVG/1.1/DTD/svg11.dtd">
<svg version="1.1" id="Layer_1" xmlns="http://www.w3.org/2000/svg" xmlns:xlink="http://www.w3.org/1999/xlink" x="0px" y="0px"
	 viewBox="0 0 142 142" enable-background="new 0 0 142 142" xml:space="preserve">
<g>
	<path fill="#8DC641" d="M126.7,27.1V16H11.6v22.3v50.8c0,2.7,1.4,5.3,3.9,6.7l49.9,28.8c2.4,1.4,5.3,1.4,7.7,0L123,95.8
		c2.4-1.4,3.9-4,3.9-6.7L126.7,27.1L126.7,27.1z"/>
	<g>
		<g>
			<polyline fill="none" stroke="#FFFFFF" stroke-miterlimit="10" points="123.6,30.5 123.6,29.5 123.6,29.5 123.6,28.5 			"/>
			
				<line fill="none" stroke="#FFFFFF" stroke-miterlimit="10" stroke-dasharray="1.6623,1.6623" x1="123.6" y1="26.8" x2="123.6" y2="20.9"/>
			<polyline fill="none" stroke="#FFFFFF" stroke-miterlimit="10" points="123.6,20.1 123.6,19 122.6,19 			"/>
			
				<line fill="none" stroke="#FFFFFF" stroke-miterlimit="10" stroke-dasharray="1.9798,1.9798" x1="120.6" y1="19" x2="16.8" y2="19"/>
			<polyline fill="none" stroke="#FFFFFF" stroke-miterlimit="10" points="15.8,19 14.8,19 14.8,20.1 			"/>
			<path fill="none" stroke="#FFFFFF" stroke-miterlimit="10" stroke-dasharray="1.9915,1.9915" d="M14.8,22.1v18v48
				c0,2.6,1.4,5,3.7,6.3l47.1,27.2c2.2,1.3,5.1,1.3,7.3,0L120,94.5c2.2-1.3,3.7-3.8,3.7-6.3V31.6"/>
		</g>
	</g>
</g>
<line fill="none" stroke="#FFFFFF" stroke-width="6" stroke-miterlimit="10" x1="44.3" y1="87.4" x2="93.1" y2="38.6"/>
<line fill="none" stroke="#FFFFFF" stroke-width="6" stroke-miterlimit="10" x1="46.1" y1="38.1" x2="94.9" y2="86.9"/>
<g id="Layer_2" display="none">
	<g display="inline">
		<path fill="#F58B20" d="M87.6-133.4h9.5c0.1,0.6,0.2,1.2,0.2,1.7c0,0.6,0.1,1.1,0.1,1.7c1-1.3,2.4-2.3,4.1-3.1
			c1.6-0.7,3.4-1,5.2-1c2.3,0,4.4,0.5,6.2,1.3c1.8,0.9,3.3,2.1,4.5,3.7c1.2,1.5,2,3.3,2.6,5.3c0.6,2,0.9,4.1,0.9,6.1
			c0,3-0.5,5.6-1.5,7.7c-1,2.2-2.3,4-3.9,5.4c-1.6,1.4-3.5,2.4-5.4,3.2c-2,0.7-4,1-6,1c-1.5,0-2.9-0.1-3.9-0.4
			c-1-0.3-1.9-0.5-2.7-0.8v13.9h-9.9C87.6-87.6,87.6-133.4,87.6-133.4z M97.5-109.7c1.3,0.9,3.2,1.3,5.7,1.3c2.4,0,4.4-0.8,5.7-2.4
			c1.4-1.6,2.1-3.8,2.1-6.5c0-1-0.1-2-0.4-3.1c-0.2-1-0.6-1.9-1.1-2.6c-0.5-0.7-1.2-1.3-2-1.8c-0.8-0.4-1.9-0.7-3.2-0.7
			c-1.1,0-2,0.2-3,0.6c-0.8,0.4-1.5,0.9-2.1,1.6c-0.6,0.7-1,1.4-1.3,2.3c-0.3,0.9-0.4,1.7-0.4,2.6C97.5-118.4,97.5-109.7,97.5-109.7
			z"/>
		<path fill="#F58B20" d="M125.4-117.4c0-2.3,0.4-4.6,1.2-6.7c0.8-2,2-3.9,3.6-5.5c1.5-1.5,3.4-2.7,5.5-3.7c2.1-0.9,4.5-1.3,7-1.3
			s4.9,0.4,7,1.3c2.1,0.9,3.9,2.1,5.4,3.7c1.5,1.5,2.6,3.4,3.6,5.5c0.8,2,1.2,4.3,1.2,6.7c0,2.3-0.4,4.6-1.2,6.7
			c-0.8,2-2,3.9-3.6,5.5c-1.5,1.5-3.4,2.7-5.4,3.7c-2.1,0.9-4.5,1.4-7,1.4s-4.9-0.5-7-1.4s-4-2.1-5.5-3.7c-1.5-1.5-2.6-3.4-3.6-5.5
			C125.8-112.8,125.4-115,125.4-117.4z M142.7-108.7c1.2,0,2.3-0.2,3.3-0.7c0.9-0.5,1.7-1.1,2.4-1.9s1.1-1.7,1.5-2.7
			c0.3-1,0.5-2.1,0.5-3.2c0-1.1-0.2-2.1-0.5-3.2s-0.8-1.9-1.5-2.7s-1.5-1.4-2.4-1.9c-0.9-0.5-2-0.7-3.3-0.7s-2.3,0.2-3.4,0.7
			c-1,0.5-1.8,1.1-2.4,1.9c-0.6,0.8-1.1,1.7-1.5,2.7c-0.3,1-0.5,2.1-0.5,3.2c0,1.1,0.2,2.1,0.5,3.2s0.8,1.9,1.5,2.7
			c0.6,0.8,1.4,1.5,2.4,1.9C140.4-108.9,141.5-108.7,142.7-108.7z"/>
		<path fill="#F58B20" d="M194.8-105.5c-1.3,1.4-3.1,2.7-5.3,3.8c-2.1,1-4.8,1.6-7.7,1.6c-2.6,0-5-0.4-7.1-1.2c-2.1-0.8-4-2-5.5-3.6
			c-1.5-1.5-2.6-3.4-3.6-5.5c-0.8-2.1-1.2-4.4-1.2-6.9c0-2.3,0.4-4.6,1.3-6.7c0.9-2,2-3.9,3.6-5.5c1.5-1.5,3.4-2.7,5.5-3.7
			c2.1-0.9,4.5-1.3,7-1.3c3,0,5.5,0.5,7.6,1.4c2.1,0.9,4,2.2,5.4,3.9l-6,6.4c-0.7-0.8-1.6-1.5-2.6-2.2c-1-0.6-2.4-0.9-4.2-0.9
			c-1.2,0-2.2,0.2-3.2,0.7c-0.9,0.5-1.7,1.1-2.4,1.9c-0.7,0.8-1.1,1.7-1.5,2.7c-0.3,1-0.5,2.1-0.5,3.3c0,1,0.2,2.1,0.5,3.2
			c0.3,1,0.8,1.9,1.5,2.7c0.7,0.8,1.4,1.4,2.4,1.9c0.9,0.5,2,0.7,3.2,0.7c1.7,0,3.2-0.3,4.3-1c1.1-0.7,2-1.4,2.7-2.1L194.8-105.5z"
			/>
		<path fill="#F58B20" d="M199.3-147.1h9.9v23.8l9.9-10.2h11.2l-11.5,11.9l13.1,20.4h-11.5l-8.2-13.6l-2.9,3v10.7h-9.9v-45.9H199.3z
			"/>
		<path fill="#F58B20" d="M264.4-104.7c-0.4,0.2-0.9,0.6-1.6,1.1c-0.7,0.5-1.7,1-2.9,1.5c-1.1,0.5-2.5,0.9-4.2,1.3
			c-1.6,0.4-3.5,0.6-5.5,0.6c-2.7,0-5.2-0.4-7.4-1.2c-2.2-0.8-4.1-2-5.6-3.6c-1.5-1.5-2.7-3.4-3.5-5.5c-0.8-2.1-1.2-4.5-1.2-7
			c0-2.2,0.4-4.4,1.1-6.5c0.7-2,1.8-3.9,3.3-5.5c1.4-1.5,3.2-2.9,5.2-3.8s4.4-1.4,7-1.4s4.9,0.5,6.8,1.4c1.9,0.9,3.7,2.1,5,3.8
			c1.3,1.6,2.3,3.6,3.1,5.8s1,4.8,1,7.4v1.6h-22.9c0,1.7,0.8,3.3,2.3,4.6c1.5,1.3,3.6,1.9,6.1,1.9s4.7-0.4,6.2-1.1
			c1.6-0.7,2.7-1.4,3.5-1.9L264.4-104.7z M255.7-120.7c0-0.7-0.1-1.4-0.4-2.1s-0.7-1.3-1.2-1.9s-1.2-1.1-2-1.5
			c-0.8-0.4-1.8-0.6-3-0.6c-1.1,0-2.1,0.2-3.1,0.6c-0.9,0.4-1.6,0.9-2.1,1.5c-0.6,0.6-1,1.2-1.3,1.9c-0.3,0.7-0.4,1.4-0.4,2.1
			C242.2-120.7,255.7-120.7,255.7-120.7z"/>
		<path fill="#F58B20" d="M273.1-125.7H268v-7.7h5.1v-9.8h9.9v9.8h8.3v7.7H283v12.7c0,1.5,0.3,2.7,0.9,3.6s1.6,1.2,3,1.2
			c1,0,1.8-0.2,2.6-0.5c0.7-0.3,1.4-0.7,2-1.2l4,6c-3.2,2.4-6.5,3.7-10.2,3.7c-2.3,0-4.2-0.3-5.8-1c-1.5-0.7-2.9-1.6-3.8-2.7
			c-0.9-1.1-1.6-2.5-2-4.3c-0.4-1.6-0.6-3.5-0.6-5.5L273.1-125.7L273.1-125.7z"/>
		<path fill="#8DC641" d="M303.6-114.9c0.6,0.6,1.3,1.3,2.1,1.9c0.8,0.7,1.7,1.2,2.6,1.8c1,0.5,2,1,3.3,1.3c1.1,0.3,2.4,0.5,3.8,0.5
			c0.8,0,1.5-0.1,2.3-0.3c0.8-0.2,1.5-0.6,2.1-1c0.6-0.4,1.1-0.9,1.5-1.6c0.4-0.6,0.6-1.3,0.6-2.1c0-1.7-0.8-3.1-2.4-4
			c-1.6-0.9-4.3-1.8-7.8-2.7c-1.7-0.4-3.4-1-4.9-1.8c-1.5-0.8-2.7-1.7-3.9-2.9c-1.1-1.1-1.9-2.3-2.5-3.8c-0.6-1.4-0.9-3-0.9-4.8
			c0-1.9,0.3-3.8,1-5.4c0.7-1.7,1.7-3.2,3.2-4.5c1.4-1.3,3.2-2.3,5.2-3.1c2-0.7,4.6-1.1,7.4-1.1c2.3,0,4.4,0.2,6.2,0.7
			c1.8,0.5,3.4,1,4.6,1.7c1.2,0.7,2.3,1.3,3.1,2c0.8,0.7,1.4,1.2,1.8,1.7l-6,6.6c-0.5-0.4-1.1-0.8-1.7-1.3c-0.7-0.5-1.4-0.9-2.2-1.3
			c-0.8-0.4-1.7-0.7-2.7-1s-2-0.4-3.2-0.4c-0.7,0-1.4,0.1-2.1,0.3c-0.7,0.2-1.3,0.5-1.9,0.9c-0.6,0.4-1,0.8-1.3,1.3
			c-0.3,0.5-0.5,1.1-0.5,1.7c0,1.5,0.8,2.9,2.4,3.8c1.6,0.9,3.9,1.7,6.8,2.4c1.7,0.4,3.4,1,5,1.7c1.6,0.7,3.1,1.6,4.4,2.7
			c1.3,1.1,2.3,2.5,3.1,4.3c0.8,1.6,1.1,3.7,1.1,6.1c0,2-0.5,4-1.3,5.7c-0.9,1.7-2.1,3.3-3.8,4.6c-1.6,1.3-3.5,2.2-5.6,3
			c-2.1,0.7-4.5,1-6.9,1c-2.3,0-4.4-0.2-6.2-0.6c-1.8-0.4-3.6-1-5.1-1.7s-2.9-1.5-4.1-2.4c-1.2-0.9-2.2-1.8-3.2-2.9L303.6-114.9z"/>
		<path fill="#8DC641" d="M363-100.1c-3.4,0-6.5-0.6-9.5-1.8c-3-1.2-5.4-3-7.5-5.1c-2.1-2.1-3.8-4.7-5-7.6c-1.2-3-1.8-6.1-1.8-9.5
			c0-3.5,0.6-6.6,1.8-9.6c1.2-3,2.9-5.5,5-7.6c2.1-2.1,4.7-3.9,7.5-5.1c3-1.2,6.1-1.8,9.5-1.8c3.4,0,6.5,0.6,9.5,1.8
			c3,1.2,5.4,3,7.5,5.1s3.8,4.7,5,7.6s1.8,6.1,1.8,9.6c0,3.4-0.6,6.5-1.8,9.5c-1.2,3-2.9,5.5-5,7.6s-4.7,3.9-7.5,5.1
			C369.5-100.7,366.3-100.1,363-100.1z M363-109.8c2,0,3.9-0.4,5.4-1.1c1.6-0.8,3-1.8,4.1-3.2c1.1-1.3,1.9-2.9,2.5-4.6
			c0.6-1.7,0.9-3.6,0.9-5.6c0-1.9-0.3-3.9-0.9-5.6c-0.6-1.7-1.4-3.3-2.5-4.6s-2.4-2.3-4.1-3.1c-1.6-0.7-3.5-1.1-5.4-1.1
			c-2,0-3.9,0.4-5.5,1.1c-1.6,0.7-3,1.8-4.1,3.1c-1.1,1.3-1.9,2.9-2.5,4.6c-0.6,1.7-0.9,3.6-0.9,5.6c0,1.9,0.3,3.9,0.9,5.6
			c0.6,1.7,1.4,3.3,2.5,4.6s2.5,2.3,4.1,3.2C359.1-110.2,361-109.8,363-109.8z"/>
		<path fill="#8DC641" d="M394-147.1h10.4v17.6h19.8v-17.6h10.4v45.8h-10.4v-18.8h-19.8v18.8H394L394-147.1L394-147.1z"/>
		<path fill="#8DC641" d="M465.6-100.1c-3.4,0-6.5-0.6-9.5-1.8c-3-1.2-5.4-3-7.5-5.1s-3.8-4.7-5-7.6c-1.2-3-1.8-6.1-1.8-9.5
			c0-3.5,0.6-6.6,1.8-9.6s2.9-5.5,5-7.6s4.7-3.9,7.5-5.1c3-1.2,6.1-1.8,9.5-1.8s6.5,0.6,9.5,1.8c3,1.2,5.4,3,7.5,5.1s3.8,4.7,5,7.6
			c1.2,3,1.8,6.1,1.8,9.6c0,3.4-0.6,6.5-1.8,9.5s-2.9,5.5-5,7.6s-4.7,3.9-7.5,5.1C472.1-100.7,469-100.1,465.6-100.1z M465.6-109.8
			c2,0,3.9-0.4,5.4-1.1c1.6-0.8,3-1.8,4.1-3.2c1.1-1.3,1.9-2.9,2.5-4.6c0.6-1.7,0.9-3.6,0.9-5.6c0-1.9-0.3-3.9-0.9-5.6
			c-0.6-1.7-1.4-3.3-2.5-4.6s-2.4-2.3-4.1-3.1c-1.6-0.7-3.5-1.1-5.4-1.1c-2,0-3.9,0.4-5.5,1.1c-1.6,0.7-3,1.8-4.1,3.1
			c-1.1,1.3-1.9,2.9-2.5,4.6c-0.6,1.7-0.9,3.6-0.9,5.6c0,1.9,0.3,3.9,0.9,5.6s1.4,3.3,2.5,4.6s2.5,2.3,4.1,3.2
			C461.7-110.2,463.6-109.8,465.6-109.8z"/>
	</g>
</g>
</svg>
